<svg height="904pt" preserveAspectRatio="xMidYMid meet" viewBox="0 0 1280 904" width="1280pt" xmlns="http://www.w3.org/2000/svg"><g transform="matrix(.1 0 0 -.1 0 904)"><path d="m10410 7470c-50-8-110-28-125-42-7-6-4-13 8-19 21-12 22-29 1-29-10 0-14-6-10-15 3-9-3-19-15-25-14-8-20-8-23 2-3 7-8 25-13 39l-8 27-100-39c-55-21-106-41-114-44-20-8 8-38 30-32 10 3 25-3 33-12 15-16 13-20-21-53-21-19-51-49-67-67-28-32-45-29-46 6 0 7-8 22-17 33-10 11-19 25-19 30-1 6-2 14-3 19-3 21-39 20-103-5-52-21-68-32-68-47 0-12-5-17-14-14-16 6-36-11-36-30 0-10 5-11 19-3 26 13 31 13 31-5 0-8 5-15 10-15 6 0 8 10 5 23-6 21-3 24 23 24 25 0 31-6 48-49 10-26 24-48 31-48 18 0 40-43 24-48-6-2-11-10-11-18s-4-14-10-14c-14 0-12-22 4-43 13-16 22-14 145 34 72 28 131 56 131 61s-9 6-20 3c-26-8-26 11-1 25 31 16 64 13 57-6-5-13-2-15 16-9 13 3 56 9 96 12 59 5 70 8 61 19-6 8-14 12-18 9-4-2-22 5-40 16-30 18-32 24-28 58 5 48 13 61 38 61 23 0 24-13 3-34-8-9-13-17-10-17 32-7 56-21 51-29-6-10 24-35 32-26 4 4 1 11-7 16-20 13-8 12 24 0s33-22 4-35c-13-6-24-18-26-29-3-13 0-16 10-10 7 5 21 7 30 6 13-2 16 1 12 12-15 38 35 5 59-39 15-28 16-28 18-7 1 12 2 26 3 32 2 18 42 38 94 48 29 5 52 5 52 1 0-5 6-9 14-9 23 0-77-97-117-114l-37-15 21-53c12-29 23-59 26-65 3-7 15-13 27-13 34 0 66-12 60-21-8-13-48-11-62 3-8 8-12 8-12 1 0-14 25-34 33-26 4 3 7 1 7-5s-4-14-10-17c-13-8-13-18 4-40 12-16 16-17 30-6 19 16 41 3 49-29 5-20-5-25-45-21-16 2-16-1 1-41 10-24 33-82 51-129 29-75 36-86 54-82s19 3 4-6c-15-10-15-15 0-61 9-27 21-50 27-50s22-12 36-27c13-15 16-22 7-15-15 12-16 10-13-20 2-18 6-42 8-53 7-31 127-339 135-347 4-4 57-9 117-12 61-2 111-5 113-5 1-1 2-9 2-18 0-19-54-49-105-59-24-4-35 0-54 20-27 29-51 34-51 11 0-8 7-15 16-15 12 0 14-4 7-12-7-9-5-25 6-52 15-34 18-36 30-22 17 20 45 21 61 1 7-8 17-12 23-8 6 3 7 1 3-5-4-7-14-12-22-12s-14-7-14-15 6-12 14-9c7 3 16-2 19-10 4-9 11-16 17-16 8 0 7 6 0 20-22 41 16 55 47 17 21-26 64-47 98-47s41-18 10-26c-14-3-31-18-38-33-10-21-20-27-53-29-35-3-46 2-70 27-46 49-78 36-50-21 9-17 16-37 16-44s10-18 21-25c12-6 18-14 13-18-5-3-10-33-12-65-5-99-45-165-137-224-22-15-44-26-50-27-5 0-10-7-10-15 0-22-22-32-42-19-15 9-37 4-113-26-101-39-127-54-95-56 12 0 15-3 7-6-7-3-18 0-25 5-8 7-27 4-62-12-28-12-72-30-100-40-144-51-164-59-158-69 3-6 1-7-5-3s-59-12-116-34c-86-34-104-44-99-58 6-15 5-15-10-3-23 19-78-3-70-27 4-13 3-14-5-3s-18 11-61-4c-31-10-49-21-44-28 4-6 0-8-10-4-13 5-241-73-255-88-5-5 21-48 37-61 8-6 15-22 17-36 2-24 1-25-27-15-16 6-32 21-35 32-4 11-11 23-16 26-6 4-6 14 1 28 13 24 14 24-91-17-38-15-68-33-68-39 0-16 6-16 31-3 26 14 24 6-6-25-14-14-22-25-18-25s0-7-10-14c-10-8-17-16-15-18s-15-22-36-46c-40-43-65-52-88-29-7 7-21 16-30 19-23 9-12 46 24 81 36 33 34 33-39 3-32-13-128-51-213-84-139-54-155-62-152-82 3-15-3-23-18-27-23-6-22-28 1-28 17 0 49-28 49-43 0-13-27-23-45-16-8 4-22 1-30-6-11-9-15-9-15-1 0 7-4 10-9 7-14-9-33 21-37 56-2 17-5 33-7 34-2 2-28-6-59-18-43-15-55-24-51-37s3-13-5-2-18 11-58-4c-63-23-75-34-47-41 14-4 20-11 16-21-6-16 12-33 35-33 9 0 11 7 7 20-3 11-2 20 4 20 5 0 16 3 25 6 12 5 16 0 16-17 0-21 1-22 13-5 13 18 15 18 41 1 50-33 54-83 8-105-20-9-23-14-12-18 8-3 20-12 26-20 8-11 13-12 18-4 10 16 24 15 28-2 2-11 27-4 105 27 97 38 101 41 88 60-12 17-12 22 3 36 19 19 101 22 120 4 9-9 20-9 40-2 62 23 80 34 75 45-6 15 36 94 51 95 6 1 15 1 19 0 5-1 6 3 3 8-4 5-2 12 4 16s8 10 5 15c-3 4 4 10 15 13s20 1 20-4-6-9-12-10c-7 0 1-7 17-14 17-7 39-23 49-34 11-12 24-21 29-21 11 0 291 106 318 121 20 10 30 76 14 83-7 2-10 17-7 35 3 23 13 35 37 47 34 16 50 38 39 55-10 17 13 9 30-10 10-11 14-25 10-36-5-11-3-16 2-12 6 3 16 2 24-3 12-7 11-10-4-16-13-5-14-9-5-15 10-6 10-11 1-22-11-12-7-16 25-20 21-2 43 0 48 5 6 6 3 7-9 2-17-7-17-5-2 22 22 42 42 64 54 64 6 0 9-6 6-13-2-7 5-22 16-32 20-18 22-18 73 0 29 10 57 21 62 25 6 4 25 11 42 15 21 4 37 16 46 33 8 18 20 27 37 27 18 1 24 6 22 18-2 10 3 17 12 17 8 0 21 9 28 19 8 11 23 18 34 17 10-2 24 1 31 6 19 15 109 15 105-1-2-9 4-10 20-5 51 16 68 24 68 34 0 6 5 8 12 4s8-3 4 4c-4 6-1 22 6 34 7 13 11 28 10 34-4 18 31 11 48-9 14-17 16-17 32 3 13 15 14 20 4 20-9 0-12 8-8 25 3 18 0 25-11 25-9 0-19-4-22-10s-11-10-17-10c-17 0 20 37 43 43 10 3 22 1 25-4s1-9-5-9c-7 0-7-8 1-25 6-14 17-25 24-25s14-6 17-12c3-7 5-4 4 8s-7 21-15 20-17 5-19 11c-3 10 3 10 25 2 24-8 28-14 24-34-3-18 0-25 11-25 21 0 67 21 63 29-2 3 10 7 27 8 18 2 33 7 35 13s7 8 12 5c4-2 88 27 186 65 238 94 225 87 218 105-3 8-1 15 6 15 6 0 8-4 5-10-3-5-2-10 4-10 5 0 28 21 50 46 39 45 63 109 45 123-13 9-17 34-4 26 15-9 12 16-5 49-8 15-15 35-15 43 0 7-7 13-16 11-10-2-19 3-22 11-3 10 0 12 11 8 13-5 14-2 7 16-5 12-68 175-140 362s-143 371-158 409c-22 59-27 66-35 48-7-16-5-25 8-38 17-17 17-18-1-24-12-5-14-9-6-14 16-10 4-29-14-22-16 6-28-9-19-24 5-8 11-7 21 1 16 13 19-2 4-17-12-12-70-6-70 7 0 5 9 18 19 28 26 26 39 101 17 101-8 0-19 7-23 15-7 13-11 12-26-5-14-17-14-20-2-20 21 0 19-17-5-30-19-10-45-2-76 25-63 55-84 78-84 91s5 12 28-5c23-16 35-18 65-12 41 10 52 4 35-16-8-10-8-17 0-25 9-9 16-7 29 8 10 10 18 25 19 32 1 6 2 17 3 23 0 7 13 9 31 7 17-3 30-3 30-2 0 5-57 151-71 183-10 22-19 29-31 25-16-5-23 5-19 29 2 11-27 9-34-3-3-5-15-10-26-10-10 0-19 5-19 10 0 6-9 10-20 10s-20-4-20-10c0-19-17-10-28 14-15 34-5 63 29 78 33 14 44 35 29 52-6 9-4 20 6 35 13 18 18 20 31 10 13-11 13-9 1 21-12 28-22 36-54 44-21 5-46 17-54 26-11 12-22 15-42 9-16-4-28-3-28 2s13 12 30 15c16 4 29 9 28 13-3 28 6 49 27 61 23 14 24 17 10 43-14 27-15 30-15 43 0 4-7 1-15-6-9-8-15-8-15-2s5 12 12 14c15 5 2 58-15 58-6 0-25-11-42-25-23-18-26-24-13-25 10 0 22-9 28-20 12-22 1-27-19-7-8 7-11 7-8 1 13-23-39-49-75-38-14 4-15 8-3 31 7 14 11 31 9 38-3 6 2 18 10 25 9 7 14 16 11 20s2 14 11 21c12 10 25 10 55 2 21-6 39-10 39-9s-13 35-29 76c-116 300-121 309-179 339-48 23-86 29-142 21zm230-181c0-5-4-9-10-9-5 0-10 7-10 16 0 8 5 12 10 9 6-3 10-10 10-16zm90-581c10-3 8-6-7-10s-23 0-26 14c-4 14-2 16 6 10 7-5 19-11 27-14zm50-129c0-6-4-7-10-4-5 3-10 11-10 16 0 6 5 7 10 4 6-3 10-11 10-16zm-85-9c3-5 1-10-4-10-6 0-11 5-11 10 0 6 2 10 4 10 3 0 8-4 11-10zm135-114c0-3-4-8-10-11-5-3-10-1-10 4 0 6 5 11 10 11 6 0 10-2 10-4zm134-56c11 8 13 1 9-37-2-27-10-53-18-59-18-14-20-28-2-18 8 5 7 2-2-9-10-13-22-16-47-11-22 4-41 1-52-7-14-11-15-11-5 1 10 11 9 18-5 34-9 11-11 16-4 12 15-9 16 10 1 20-6 3-15 1-19-6-5-8-9-7-13 4-4 9-1 16 5 16 7 0 6 5-2 15-7 8-21 15-31 15-11 0-19 5-19 11 0 5 8 9 18 8 37-5 162 13 163 25 1 6 3 3 6-7 3-13 8-15 17-7zm26-105c0-8-4-15-10-15-5 0-10 7-10 15s5 15 10 15c6 0 10-7 10-15zm143-314c-13-11-23-27-23-38-1-22-23-53-38-53-13 0-32 32-32 54 0 8 19 24 43 35 56 26 79 26 50 2zm156-514c9 0 6-7-9-19-24-20-40-23-40-9 0 5-3 17-7 26-5 14-2 16 18 10 13-5 30-8 38-8zm105-183c3-8 2-12-4-9s-10 10-10 16c0 14 7 11 14-7zm-34-9c0-7-30-13-34-7-3 4 4 9 15 9 10 1 19 0 19-2zm-90-25c9-16 8-18-5-14-8 4-15 12-15 20 0 20 7 17 20-6zm-40-14c0-3-4-8-10-11-5-3-10-1-10 4 0 6 5 11 10 11 6 0 10-2 10-4zm56-42c-9-8-16-20-16-26s-3-9-6-5c-10 10 7 47 22 47 13 0 13-2 0-16zm154-34c0-5-8-10-17-10-15 0-16 2-3 10 19 12 20 12 20 0zm-460-50c0-5-3-10-7-10-5 0-19-3-33-6l-25-5 25 15c30 18 40 20 40 6zm130-10c0-5-4-10-10-10-5 0-10 5-10 10 0 6 5 10 10 10 6 0 10-4 10-10zm167-12c-3-8-6-5-6 6-1 11 2 17 5 13 3-3 4-12 1-19zm43 18c0-3-4-8-10-11-5-3-10-1-10 4 0 6 5 11 10 11 6 0 10-2 10-4zm-130-28c0-5-9-4-20 2s-20 12-20 14 9 2 20-1 20-9 20-15zm-383-23c9-24-1-27-20-5-14 17-15 20-2 20 9 0 18-7 22-15zm-82-15c-3-5-14-10-23-9-14 0-13 2 3 9 27 11 27 11 20 0zm225-24c0-3-4-8-10-11-5-3-10-1-10 4 0 6 5 11 10 11 6 0 10-2 10-4zm164-30c10-3 17-8 15-11-10-10-75 21-71 33 3 11 7 10 21-1 9-8 25-17 35-21zm110 5c-2-3-12 3-22 13-16 17-16 18 5 5 12-7 20-15 17-18zm-644-11c0-11-4-20-9-20s-7 9-4 20 7 20 9 20 4-9 4-20zm378-21c-3-8-7-3-11 10-4 17-3 21 5 13 5-5 8-16 6-23zm47 1c-3-5-12-10-18-10-7 0-6 4 3 10 19 12 23 12 15 0zm-415-30c0-5-2-10-4-10-3 0-8 5-11 10-3 6-1 10 4 10 6 0 11-4 11-10zm180-10c-19-12-30-12-30-1 0 10 31 20 40 14 2-2-2-8-10-13zm280 5c-7-9-15-13-17-11-7 7 7 26 19 26 6 0 6-6-2-15zm-570-5c0-5-7-10-16-10-8 0-12 5-9 10 3 6 10 10 16 10 5 0 9-4 9-10zm360-4c0-7-7-19-15-26-13-11-14-10-9 5 4 10 1 21-7 26-11 6-8 9 9 9 12 0 22-6 22-14zm-440-46c0-6-9-2-20 7-11 10-20 19-20 21 0 1 9-2 20-8s20-15 20-20zm490 6c0-2-7-7-16-10-8-3-12-2-9 4 6 10 25 14 25 6zm-300-46c0-5-7-10-16-10-8 0-12 5-9 10 3 6 10 10 16 10 5 0 9-4 9-10zm-16-35c-4-8-8-15-10-15s-4 7-4 15 4 15 10 15c5 0 7-7 4-15zm-374-5c13-9 12-13-7-29-13-11-23-24-23-30 0-9-31-31-44-31-3 0-3 13-1 30 2 16-1 32-6 35-5 4-9 11-9 16 0 6 4 8 9 5 5-4 20-2 33 3 30 12 30 12 48 1zm-120-4c0-3-4-8-10-11-5-3-10-1-10 4 0 6 5 11 10 11 6 0 10-2 10-4zm247-18c-3-8-6-5-6 6-1 11 2 17 5 13 3-3 4-12 1-19zm126 15c-7-2-19-2-25 0-7 3-2 5 12 5s19-2 13-5zm0-30c-7-2-19-2-25 0-7 3-2 5 12 5s19-2 13-5zm-610-90c-7-3-13-12-13-21 0-15-2-15-10-2-7 11-5 19 7 27 9 7 19 10 22 7 3-4 0-9-6-11zm121-1c3-5-1-9-9-9s-15 4-15 9c0 4 4 8 9 8 6 0 12-4 15-8zm-307-182c0-28-3-52-7-55-4-2-5 7-2 20 3 17-1 27-12 31-9 3-16 10-16 16 0 5 4 7 9 3 5-3 12 4 16 15 9 30 11 25 12-30zm-67-25c7-9 8-15 2-15-5 0-12 7-16 15-3 8-4 15-2 15s9-7 16-15zm-625-115c-3-6 4-14 17-19 23-9 23-9-5-16-15-4-30-5-33-2-9 8 6 47 17 47 6 0 7-5 4-10zm485-4c0-3-4-8-10-11-5-3-10-1-10 4 0 6 5 11 10 11 6 0 10-2 10-4z"/><path d="m9590 7163c-19-8-95-37-168-65-126-48-171-77-172-112-1-18-37-56-54-56-18 0-48-39-39-53 3-5-3-7-13-5-11 2-18 10-16 18 3 11 0 11-14 0-14-12-18-12-30 5-8 10-14 22-14 27 0 14-35 9-60-9-13-10-38-17-55-18-21 0-31-5-33-19-3-14 0-17 13-13 10 4 14 3 10-4-4-5-2-16 4-22 19-24 2-52-40-65-57-18-102 9-104 63 0 12-6 19-15 17-8-2-234-88-502-192-387-149-492-194-511-216-17-19-33-27-55-27-18 0-32-4-32-9 0-4-7-8-15-8s-15 4-15 9c0 8-157-45-170-57-3-3 1-7 8-9 20-7 14-25-6-18-37 11-167-32-537-180-33-13-108-42-167-65-60-23-108-46-108-52 0-5-6-8-14-5-17 7-196-60-196-73 0-4 6-10 14-13s26-30 40-59 26-45 26-35c0 9 7 17 16 17 10 0 14-6 10-15-3-8-1-15 4-15 6 0 10-7 10-16s-5-13-12-10-21 9-30 12c-10 4-18 11-18 16 0 6-8 7-17 3-10-4-30-7-44-6-29 1-55-22-44-39 3-5 2-10-3-10s-12 9-15 20c-3 13-14 20-30 20-29 0-40 13-45 50-4 33-8 35-35 22-12-6-33-14-47-18-24-7-24-7-5-16 17-7 16-8-5-3-15 2-58-8-105-27-44-17-118-45-165-63s-184-71-305-118c-121-46-282-108-357-137-111-43-138-57-138-72 0-23-18-43-48-52-12-4-22-16-22-26s-5-22-11-26c-14-8-28 13-23 35 3 9 0 22-4 29-9 13-33 6-272-88-58-23-142-55-187-71-82-30-82-31-76-61 5-24 3-30-8-26-8 3-13 15-12 27 3 24-3 26-32 8-23-14-29-31-21-64 4-15 11-20 21-17 8 4 15 1 15-7 0-7 3-10 6-7 3 4 1 15-5 27-12 22-2 35 14 17 11-13 13-41 3-51-4-4-4-13-1-21 3-9-2-14-16-14-18 0-20-4-15-24 3-13 1-27-5-30-6-4-11-4-11 1 0 4-14 9-32 10-17 1-39 12-50 23-10 11-27 20-36 20-10 0-29 13-44 30l-26 30-46-16c-50-17-59-25-23-21 18 2 23-4 25-30 3-27 9-35 35-43 30-9 30-9-8-4-48 7-45 7-72 5-16-1-23-7-23-22 0-24-26-48-53-49-14 0-16 4-9 18 5 9 8 22 5 28-2 6 7 15 19 21l22 10-26 17c-25 16-29 16-149-31-108-42-124-51-121-70 2-14-4-22-20-27-35-9-41-7-34 9 3 8 0 15-6 15-10 0-245-88-333-125-16-7-61-25-100-40-38-14-74-32-80-38-5-7-23-13-38-15-49-5-382-138-379-151 2-8-4-10-17-6-11 3-42-3-68-14-26-10-104-41-173-67s-129-50-135-53c-5-4-36-15-67-25-32-11-55-23-52-27 3-5-3-6-12-2-12 4-15 3-10-5s2-10-8-6c-9 3-34-3-56-15s-46-21-53-21c-20 0-197-73-197-81 0-5-8-6-18-2-15 5-14 4 2-9 18-14 18-15-4-31-25-18-25-19 4-34 18-10 18-11-7-28-15-9-38-18-52-19-14 0-25-4-25-8 0-5-7-8-15-8-10 0-15-10-15-30 0-16 5-30 11-30 5 0 8 3 6 7-3 5 6 9 19 9l24 2-26-20c-14-11-28-18-31-15-3 4-21-10-40-30-27-27-32-37-22-44 19-12 35-5 31 15-2 10 4 16 14 16s14-3 11-7c-4-3-1-13 6-21 7-10 8-13 1-9-11 6-43-21-36-30 2-3 0-8-4-11-4-4-5-2-1 3 7 14-50 47-59 34-3-6-12-8-19-5-15 5-38-17-28-27 3-4 19-7 35-7 15 0 28-4 28-10 0-5 5-10 11-10s8 7 4 18c-5 14-4 15 7 4 19-19-2-45-42-53-18-4-36-13-41-21-6-9-9-9-9-1 0 9-7 10-22 4-13-5-22-14-20-20 3-16-12-13-34 7-21 18-54 25-54 11 0-5-12-9-27-9-18-1-35-10-47-26-18-26-18-26 2-20 11 4 23 2 27-3 9-15-35-23-70-12-16 4-29 14-27 21 1 7-5 24-14 38-11 16-18 51-20 91-4 87-16 95-53 35-42-66-41-113 5-236 29-75 40-95 53-91s13 3 2-5c-8-6-11-18-6-31 7-23 34-29 36-8 1 6 4 1 8-13 5-15 3-31-4-40-16-20-8-40 16-40 10 0 19-7 19-15s-5-15-11-15c-12 0-3-37 14-58 6-7 12-25 13-39 2-14 5-28 9-31 9-9 60 12 60 25 0 6 4 15 9 20 5 4 7 3 3-3-4-7 5-11 23-11 17 0 30 4 30 9 0 4 8 8 18 8 14-1 13-4-7-21-14-11-25-30-26-42-2-16-8-21-25-19-16 1-21-2-16-13 3-8 0-14-7-12-16 3-13-58 7-115 29-84 47-119 57-112 8 4 9-1 4-16-5-16-4-20 5-15 9 6 10 1 5-16-7-21-6-22 8-10 9 7 14 17 11 22s1 7 8 5c7-3 25-7 40-10 23-5 26-4 21 11-6 15-4 16 9 5 9-7 18-9 21-5s31 9 63 11c60 3 70-5 18-14-16-3-36-12-44-21-10-11-11-13-2-8 11 6 12 3 3-13-8-15-8-22 2-25 6-3 2-6-11-6-13-1-20 3-17 9s1 10-4 10c-6 0-11-7-11-15 0-21-10-19-37 7-18 17-26 19-35 10s-9-12 2-12c7 0 10-3 7-7-4-3 10-12 30-20 45-15 56-16 49-5-3 5 8 9 24 10 17 0 30-1 30-4 0-9-93-45-104-40-6 2-3 5 7 5 17 1 25 21 8 21-5 0-17 3-27 7-12 4-15 3-10-5s2-10-8-6c-9 3-14 11-13 16 1 6-4 13-11 15-8 3-1-26 19-79 17-45 33-91 36-101 5-15 10-12 39 18 19 21 31 42 28 50-4 8-1 15 4 15 6 0 18 7 27 16 19 20 112 34 101 15-4-6-13-11-20-11s-21-9-31-20-24-20-32-20c-7 0-13-5-13-10 0-16 58-2 80 20 14 14 28 18 49 14 18-4 31-1 36 7 6 9 3 11-8 6-10-4-17-1-17 6 0 8-4 6-10-3-5-8-10-10-10-4s9 21 20 34c25 29 25 31-3 21-14-6-30-6-38 0-8 5-9 9-3 9 7 0 14 10 17 22 5 16 9 19 19 10 20-16 84 0 80 21-2 10 4 17 12 17 13 0 13 5 2 37-12 34-32 48-46 33-32-33-49-41-70-30-18 9-21 18-16 41 3 19 1 29-6 29-6 0-1 11 12 25 30 32 40 32 40 0 0-14 5-25 10-25 6 0 10 4 10 9s8 11 17 13c16 3 16 5-2 23-11 11-19 29-18 40 1 14 0 15-3 3-3-9-12-19-20-22-10-4-12-2-8 5 5 8-3 10-25 7-17-2-31 0-31 5 0 6-9 2-20-8s-20-13-20-7 6 13 13 15c7 3 4 6-6 6-10 1-15 6-12 11s1 10-6 10 2 15 19 33c29 30 52 81 52 114 0 15-36 17-45 3-3-6-17-10-31-10s-23 4-20 9-1 14-9 21c-22 18-18 40 6 40 11 0 31 8 43 18l24 17-25 70c-14 39-27 71-28 73-2 2-14-3-27-12-14-9-28-12-37-7-8 5-21 7-30 4-14-4-14-3-1 6s13 11-1 16c-26 10-62 1-88-24-23-20-26-21-29-6-2 9-10 14-18 11s-14-1-14 4c0 13 18 22 24 11 9-14 45-1 40 14-3 7 0 16 5 20 6 3 9 9 7 13s7 8 21 9c37 2 114 33 107 44-3 5 5 23 16 40 12 16 19 33 16 36-3 4-6 1-6-5 0-7-6-12-12-12-7 1-3 9 8 19 25 20 15 55-13 44-11-4-14-3-9 5 4 7 2 12-5 12s-10 3-6 6c3 3 19-2 36-12 29-17 31-17 51 1 11 10 20 24 20 32 0 7 6 12 12 11 7-2 13 3 12 10-1 6-2 21-2 33-2 16-7 19-22 14-18-6-17-3 5 19 14 14 32 26 39 26 8 0 16 9 19 20 5 20 47 29 47 10 0-5 6-10 14-10s21-6 28-13 21-16 31-20c15-5 16-4 7 12-5 11-15 22-22 25-7 4-3 4 9 2 22-4 23 3 8 57-6 18-2 17 18-8 20-24 23-34 16-54-5-13-8-25-7-26 2-2 67 22 146 53 103 39 141 59 138 69-4 10-1 11 12 4 24-12 158 42 156 64-1 8 2 15 7 15s9-4 9-10c0-16 17-12 114 25 217 85 301 117 461 178 94 36 247 95 340 132 94 36 183 71 198 77 20 8 25 14 18 21-22 22-10 36 57 68 43 21 79 31 101 30 23-2 31 1 26 9-4 6-1 17 5 25 9 11 9 15 1 15-6 0-11 12-11 26 0 22-2 24-15 14-15-12-35-6-35 12 0 5 6 8 14 5 18-7 28 30 15 55-17 32-2 55 41 62 31 5 43 13 55 36 9 17 23 30 33 30 20-1 52-23 52-37 0-17 27-35 35-23 8 13 25 13 25 1 0-5-9-13-20-16s-20-11-20-16c0-6 8-8 19-4 21 6 51-3 51-17 0-17-24-33-55-36-59-5-67-7-100-36-26-23-31-33-23-46 7-11 20-15 42-12 28 5 30 3 17-12-8-9-11-19-8-22s61 16 129 42c67 26 152 58 188 71 35 13 69 28 75 32 5 5 24 11 40 15 17 4 48 15 70 25s61 26 88 36c26 9 53 23 61 30 7 8 16 12 19 9 10-10 227 74 227 88 0 11-28 10-35-2-10-16-23-11-21 7 3 17 31 30 70 32 14 1 17-4 13-19-6-24-9-24 39-4 55 23 67 34 54 49-8 10-6 15 9 20 62 19 80 10 39-20-13-10-18-15-13-14 92 32 163 63 159 70-3 5-10 9-15 9-6 0-7-5-3-11 5-8-5-10-32-7-28 3-42 0-51-11-8-11-12-12-13-3 0 6-7 12-16 12-11 0-14 5-9 18 3 9 9 29 12 45 5 22 2 27-14 27-23 0-49 45-32 56 6 3 18-1 28-10 23-21 58-13 82 18 24 30 55 42 73 27 10-8 17-7 27 6 9 11 10 14 2 9-7-4-13-3-13 2 0 17 25 20 45 6 16-12 18-18 7-34-10-17-10-20 2-20 8 0 18 5 21 10 11 18 31 11 43-15 9-20 9-23-3-18-9 3-15-1-15-9 0-7-10-15-22-15-13-1-24-7-26-13s-10-17-18-24c-8-8-14-18-14-22s-8-13-17-21c-23-19-30-21 237 82 189 73 324 131 257 111-11-3-15-2-12 4s13 10 22 10 13 6 9 15c-3 8 0 15 5 15 6 0 9-9 6-20-6-24 1-25 45-6 18 8 47 20 64 26 21 8 34 20 37 36 2 13 0 24-4 24-16 0-47 38-45 54 1 9 8 22 16 29s10 8 7 1c-4-7 0-14 7-17 8-3 16-3 18 1s17 17 35 29l32 23 30-26c20-17 44-26 71-27 25-1 40-6 40-14 0-19 9-17 143 33 120 46 156 64 126 64-12 0-12 2 1 10 9 5 19 5 26-1 9-7 22-6 41 4 15 8 51 22 79 31 43 14 51 20 47 36-3 11-10 20-16 20-14 0 0 13 18 16 7 1 12-3 9-9-2-7 0-18 4-25 7-10 15-10 40 1 18 7 29 17 25 21s-1 5 7 1c9-3 64 14 124 38 86 35 104 45 85 50-15 4-31 0-43-11-20-16-20-16-7 1 12 15 11 17-5 18-11 0-14 3-6 6 6 2 10 9 7 14-4 5 2 6 11 2 12-4 15-3 10 5-14 23 46 60 70 44 6-4 17-21 24-39 14-30 35-38 23-8-3 9 1 15 11 15 9 0 16 5 16 11 0 8 14 10 44 6 37-5 63 1 167 42 68 27 168 65 223 86 54 21 110 48 123 61 27 25 49 32 37 13-8-13 35-2 51 13 6 6 4 7-7 3s-18-2-18 4 4 11 9 11c4 0 6 11 3 25-3 17 0 25 9 25 8 0 31 9 52 20 43 23 87 18 87-9 0-29 9-30 76-3 36 14 60 29 52 32-16 6-23 50-8 50 14 0 70 61 70 76 0 13 28 28 48 25 6-1 12 5 12 14 0 11-9 14-31 13-20-2-34 2-37 11-3 10 0 12 12 8 11-4 16-1 16 9 0 16-12 16-58 3-8-2-19 5-25 16-7 11-15 22-19 25-10 8 26 47 50 54 12 4 27 4 34-1 7-4 28-9 47-10 62-4 62-3 58-116-2-57-7-109-11-115-4-7-5-12-2-12s68 24 145 54c142 55 202 89 198 115-4 25-23 23-35-4-6-14-20-25-30-25s-27-7-38-15c-30-23-124-1-124 29 0 3 6 6 14 6s17 7 20 16 12 14 19 11c6-2 29 2 49 9s38 9 40 4 21-2 43 6c22 7 61 14 86 14 26 0 63 7 84 16 20 8 38 14 39 12s6-13 12-25c9-21 9-21 111 19 102 41 102 41 80 59l-22 19 25 19c31 24 40 19 35-20-4-26-2-29 10-19 8 6 19 9 24 5 6-3 20 4 31 15s25 18 30 15 69 17 142 45c201 77 218 84 218 93 0 5 4 6 9 3s34 5 65 17l56 23-24 28c-42 49-24 79 28 47l35-22 11 21c9 18 13 19 25 6 8-8 28-13 45-12 16 1 30-1 30-5s9-5 20-2c24 6 26 19 5 27-23 8-19 45 4 39 10-3 22 0 25 5 8 14 62-2 59-17-4-13 2-14 25-2 9 6 29 12 44 15 31 7 67 38 49 44s-14 60 5 64c14 2 12 8-10 36-15 17-36 32-45 32-10 0-24 11-31 25-9 17-17 22-25 15s-21 0-41 22c-16 17-23 28-16 24 6-4 12-3 12 3 0 18-15 19-50 4zm-80-87c-7-7-13-7-20 0-6 6-3 10 10 10s16-4 10-10zm80-51c0-2-9-9-20-15-16-9-18-8-14 5 5 13 34 22 34 10zm10-65c0-5-5-10-11-10-5 0-7 5-4 10 3 6 8 10 11 10 2 0 4-4 4-10zm45 0c-4-6 8-24 25-40 34-32 29-41-6-12-25 21-41 62-24 62 6 0 8-5 5-10zm-98-32c-3-8-6-5-6 6-1 11 2 17 5 13 3-3 4-12 1-19zm-306-85c0-5 2-20 4-36 3-20-2-30-18-39-12-6-24-14-27-18s-20-15-39-25c-31-15-35-15-43-2-5 9-15 23-24 31-13 14-13 18 2 41 19 28 26 30 55 13 18-11 23-10 42 14 21 26 46 36 48 21zm124-73c3-5 1-10-4-10-6 0-11 5-11 10 0 6 2 10 4 10 3 0 8-4 11-10zm-618-50c21 0 24-4 20-21-4-16 2-25 24-37 31-18 37-31 17-34-7 0-17-2-23-3-5-2-19-3-30-4-17-1-18-3-5-12s13-10 0-6c-8 2-15 15-16 29s-11 35-23 47c-18 18-20 25-10 44 8 13 14 17 17 9 2-6 15-12 29-12zm358 0c3-5 2-10-4-10-5 0-13 5-16 10-3 6-2 10 4 10 5 0 13-4 16-10zm5-30c0-5-5-10-11-10-5 0-7 5-4 10 3 6 8 10 11 10 2 0 4-4 4-10zm-273-17c-9-9-20-13-24-9s-1 11 7 16c25 16 35 11 17-7zm76-7c3-8-2-17-11-21-15-6-15-7 2-17 18-10 18-12 2-24-13-9-25-10-47-2l-29 10 27 33c30 37 48 43 56 21zm-1463-441c0-14-4-25-9-25-12 0-23 29-15 41 10 18 24 9 24-16zm-460-99c0-3-4-8-10-11-5-3-10-1-10 4 0 6 5 11 10 11 6 0 10-2 10-4zm165-26c3-5 1-10-4-10-6 0-11 5-11 10 0 6 2 10 4 10 3 0 8-4 11-10zm-250-30c3-5 2-10-4-10-5 0-13 5-16 10-3 6-2 10 4 10 5 0 13-4 16-10zm96-13c-10-9-11-8-5 6 3 10 9 15 12 12s0-11-7-18zm-281-37c-8-5-17-7-19-4-3 3 1 9 9 14s17 7 19 4c3-3-1-9-9-14zm80-5c10-13 9-15-9-15-12 0-21 6-21 15 0 8 4 15 9 15s14-7 21-15zm60-1c0-2-9-4-20-4s-20 4-20 9 9 7 20 4 20-7 20-9zm247-10c5-15-28-27-40-15-5 5-6 14-2 21 8 13 37 9 42-6zm-447-9c0-8-2-15-4-15s-6 7-10 15c-3 8-1 15 4 15 6 0 10-7 10-15zm487-27c-3-8-6-5-6 6-1 11 2 17 5 13 3-3 4-12 1-19zm-324-22c9-7 17-17 17-21s-7-2-15 5c-12 10-15 9-15-6 0-16-2-17-10-4-6 10-6 16 1 19 7 2 6 7-2 12s-9 9-4 9c6-1 18-7 28-14zm50-1c-3-9-8-14-10-11-3 3-2 9 2 15 9 16 15 13 8-4zm160-9c3-8 0-16-6-19-7-3-13 3-13 14 0 22 12 25 19 5zm107-6c0-5-5-10-11-10-5 0-7 5-4 10 3 6 8 10 11 10 2 0 4-4 4-10zm-480-10c0-5-7-10-16-10-8 0-12 5-9 10 3 6 10 10 16 10 5 0 9-4 9-10zm300-5c-7-8-17-12-22-9-6 4-5 10 3 15 22 14 33 10 19-6zm-384-33c-17-16-18-16-5 5 7 12 15 20 18 17 3-2-3-12-13-22zm174 9c0-6-9-9-19-8-11 0-17 5-15 9 7 11 34 10 34-1zm50-1c0-13-11-13-30 0-12 8-11 10 8 10 12 0 22-4 22-10zm180-14c0-3-4-8-10-11-5-3-10-1-10 4 0 6 5 11 10 11 6 0 10-2 10-4zm-166-34c2-4-4-8-15-8-10 0-19 4-19 8s6 8 14 8 17-4 20-8zm-49-23c-3-4-12-6-20-2-8 3-15 0-15-7s-8-9-21-5c-16 5-19 4-14-5s4-11-3-6c-18 11-15 20 11 31 25 12 70 7 62-6zm58-14c8-20-11-30-28-15-8 6-20 8-27 4-10-6-9-3 1 9 17 21 47 22 54 2zm-483-26c0-5-4-9-10-9-5 0-10 7-10 16 0 8 5 12 10 9 6-3 10-10 10-16zm-247-16c9-3 17-9 17-14s8-9 17-9c22 0 7-13-35-30-30-12-35-11-53 8-16 18-18 25-7 42 8 12 19 18 28 14 8-3 23-9 33-11zm571 2c-10-8-23-15-28-15-6 0-1 7 10 15 10 8 23 15 28 15 6 0 1-7-10-15zm-224-52c-11-17-11-17-6 0 3 10 6 24 7 30 0 9 2 9 5 0 3-7 0-20-6-30zm130-23c0-5-4-10-10-10-5 0-10 5-10 10 0 6 5 10 10 10 6 0 10-4 10-10zm-530-54c0-2-8-10-17-17-16-13-17-12-4 4s21 21 21 13zm-300-133c10-9-57-52-82-53-23 0-28 4-28 23 0 36 18 47 64 40 23-3 43-8 46-10zm-147-118c18-13 18-14-1-30-11-10-17-25-15-35 3-12-4-20-24-28-60-23-72-23-92-3-27 27-28 45-2 31 16-8 23-5 40 16 11 14 23 34 26 45 7 22 42 25 68 4zm-986-297c-3-8-6-5-6 6-1 11 2 17 5 13 3-3 4-12 1-19zm153-45c0-15-45-53-64-53-17 0-15 4 14 30 33 29 50 37 50 23zm-530-63c0-5-7-7-15-4-8 4-15 8-15 10s7 4 15 4 15-4 15-10zm20-50c0-5-4-10-10-10-5 0-10 5-10 10 0 6 5 10 10 10 6 0 10-4 10-10zm-705-158c6-4 11-22 10-40 0-26-6-37-26-48-23-12-31-11-62 4l-36 17 28 13c15 7 33 23 39 37 12 25 28 31 47 17zm475-2c0-5-4-10-10-10-5 0-10 5-10 10 0 6 5 10 10 10 6 0 10-4 10-10zm-400-101c6-20 3-24-17-24-15 0-21 5-18 13s5 20 5 29c0 23 23 10 30-18zm-375 1c3-5-1-10-9-10-9 0-16 5-16 10 0 6 4 10 9 10 6 0 13-4 16-10zm-19-109c-16-17-16-19 4-24 11-3 23-1 26 4s9 9 14 9-2-16-15-36c-14-20-25-43-25-50s-12-14-27-16c-14-2-29-9-31-17-3-8 0-11 7-7 6 4 11 2 11-4s-10-10-22-8c-18 2-24-3-26-22-3-24-26-50-45-50-5 0-6 7-3 16 4 11 2 15-8 11s-13-1-9 9c3 7 0 14-6 14-13 0-14 10-2 29 8 12 12 12 26-2 9-10 22-17 28-16 9 0 8 2 0 6-23 9-14 30 10 26 21-4 22-2 19 35-3 33 0 42 22 59 14 12 26 25 26 31s6 13 13 15c25 11 30 6 13-12zm137-61c3-11 2-22-3-25-4-3-10 6-12 20-6 30 7 34 15 5zm-443-7c0-3-9-14-21-24-11-10-18-22-15-28 4-5 2-12-3-15-10-6-25 59-17 73 6 9 56 3 56-6zm-417-168c-1-11 4-23 10-27 15-10-4-11-27-2-14 5-14 8 0 22 15 15 15 17-2 24-18 7-18 8 1 5 13-2 19-10 18-22zm-185-52c1-10 3-32 5-50 3-24-1-33-15-36-10-3-25-21-33-40-14-34-17-35-55-32-22 2-40-1-40-6s-13-9-29-9c-17 0-33-4-36-10-3-5-15-10-26-10-16 0-17 3-7 19 9 15 9 23-2 36-10 13-15 13-21 3-7-10-9-9-9 3 0 9-7 22-15 29s-14 20-14 29c1 13 2 13 6 1 2-8 16-24 30-34 24-18 27-18 52-3 14 9 25 21 24 26s13 8 32 7c19-2 35 1 35 7 0 5 9 7 20 4s34 1 50 10c16 8 34 12 40 8 5-3 10-1 10 4 0 6-4 11-10 11-5 0-10 10-10 22 0 21 0 21-15 2-8-10-15-14-15-8 0 13 21 34 35 34 6 0 12-8 13-17zm79 2c-2-5-13-8-23-7-32 6-35 17-3 17 16 1 28-4 26-10zm174-38c-5-5-17-5-28 2-16 9-15 10 9 9 16-2 24-6 19-11zm-457-13c3-8 2-12-4-9s-10 10-10 16c0 14 7 11 14-7zm321-12c1-18-2-21-18-16-13 4-17 2-13-5 15-23-1-10-23 20l-23 30 38-3c31-2 38-7 39-26zm-85-54c0-6-6-5-15 2-8 7-15 14-15 16s7 1 15-2c8-4 15-11 15-16zm74-4c5-14 4-15-9-4-17 14-19 20-6 20 5 0 12-7 15-16zm-392-47c-24-11-38-5-28 11 3 6 16 8 28 4l22-5zm385-3c-3-3-12-4-19-1-8 3-5 6 6 6 11 1 17-2 13-5zm-154-24c-3-11-7-20-9-20s-4 9-4 20 4 20 9 20 7-9 4-20zm-283-11c0-6-4-7-10-4-5 3-10 11-10 16 0 6 5 7 10 4 6-3 10-11 10-16zm100-9c0-5-5-10-11-10-5 0-7 5-4 10 3 6 8 10 11 10 2 0 4-4 4-10zm-130-60c6-11 7-20 2-20-6 0-12 9-15 20s-3 20-1 20 8-9 14-20zm-510-194c0-3-4-8-10-11-5-3-10-1-10 4 0 6 5 11 10 11 6 0 10-2 10-4zm210-32c0-2-9-4-21-4-11 0-18 4-14 10 5 8 35 3 35-6zm-247-1c-7-2-13-12-13-20 0-9-3-14-6-10-10 10 4 37 18 36 10 0 10-2 1-6zm192-3c-3-5-11-10-16-10-6 0-7 5-4 10 3 6 11 10 16 10 6 0 7-4 4-10zm208-4c4-10 1-13-9-9-15 6-19 23-5 23 5 0 11-7 14-14zm-38-6c-3-5 1-10 9-10 9 0 13-6 10-15-5-13-8-13-21 0-12 13-11 35 3 35 3 0 2-4-1-10zm-58-15c-2-5-11-10-21-10-9 0-25-13-35-29-12-18-20-23-23-14-4 11-8 11-24-1-10-7-6-1 11 14 19 18 25 30 17 33-24 8-3 17 37 17 23 0 39-4 38-10zm-282-15c3-5 2-10-4-10-5 0-13 5-16 10-3 6-2 10 4 10 5 0 13-4 16-10zm98-24c4-10 1-13-9-9-15 6-19 23-5 23 5 0 11-7 14-14zm-79-41c-4-8-11-15-16-15-6 0-5 6 2 15 7 8 14 15 16 15s1-7-2-15zm101-4c-3-6-15-11-27-11-17 0-18-2-8-15 16-20 3-19-16 0-14 13-13 16 8 24 13 5 26 7 31 4 4-2 7 1 7 8s3 10 6 6c3-3 3-10-1-16zm45-25c0-2-11-6-25-8-13-3-22-1-19 3 5 9 44 13 44 5zm107-131c0-24-4-42-9-39s-6 10-3 15c4 5 0 9-7 9-8 0-20 6-26 12-10 10-8 16 10 30 33 25 35 23 35-27zm98-5c-4-6 8-10 29-10 45 0 54-15 24-40s-49-25-81 0c-16 13-28 16-32 10-11-18-23-11-18 11 4 15 12 20 29 16 13-2 23-1 22 2-1 15 3 21 18 21 8 0 12-4 9-10zm-165-10c0-5-4-10-10-10-5 0-10 5-10 10 0 6 5 10 10 10 6 0 10-4 10-10zm-20-54c0-2-7-7-16-10-8-3-12-2-9 4 6 10 25 14 25 6zm275-126c3-5 1-10-4-10-6 0-11 5-11 10 0 6 2 10 4 10 3 0 8-4 11-10zm-25-24c0-3-4-8-10-11-5-3-10-1-10 4 0 6 5 11 10 11 6 0 10-2 10-4zm-90-16c-14-9-6-15 15-10 6 1 7-2 3-5-4-4-2-17 4-29 7-11 11-25 10-30-2-5 3-13 10-17 10-7 9-9-4-9-10 0-18 5-18 10 0 6-11 10-25 10-16 0-25 6-25 15 0 8 7 15 15 15 17 0 20 25 5 35-13 8-3 25 13 25 7 0 6-4-3-10zm17-108c14-8 33-12 48-8 36 9 32-13-5-25-16-6-30-15-30-20s-12-9-26-9-23-4-20-9c3-4-6-6-19-3-14 2-25 8-25 13s-12 9-27 9c-49 0-72 11-82 40-9 28-9 28 28 25 20-2 43 0 50 5 18 11 80 1 108-18zm173-22c0-5-2-10-4-10-3 0-8 5-11 10-3 6-1 10 4 10 6 0 11-4 11-10zm-303-56c-3-3-12-4-19-1-8 3-5 6 6 6 11 1 17-2 13-5zm148-34c3-5 2-10-4-10-5 0-13 5-16 10-3 6-2 10 4 10 5 0 13-4 16-10zm-111-16c9-3 16-14 15-23 0-10-2-11-6-3-2 6-11 12-19 12s-14 5-14 10c0 12 3 12 24 4zm171-4c-11-5-33-8-50-8-29 1-29 1 5 8 49 10 69 10 45 0zm190-47c-11-3-25-9-31-14s-14-6-17-2c-15 14-6 20 31 20 20 0 28-2 17-4z"/><path d="m1770 3210c-13-8-12-10 3-10 9 0 17 5 17 10 0 12-1 12-20 0z"/><path d="m8865 6880c-3-5-1-10 4-10 6 0 11 5 11 10 0 6-2 10-4 10-3 0-8-4-11-10z"/><path d="m10860 6635c9-11 9-22 1-46-7-21-7-37 0-50 13-26 39-25 32 1-4 13 3 26 18 39l24 19-27 11c-16 6-28 17-28 26 0 8-7 15-16 15-13 0-14-3-4-15z"/><path d="m10193 6443c-51-19-91-40-90-46s-7-11-18-12c-50-4-56-6-50-16 4-6-2-13-14-16-39-10-23-59 25-72 25-6 34-19 68-104 22-53 43-94 48-91 17 11 46-7 41-25-3-10 0-22 6-25 19-12 12-29-9-23-11 3-20 2-20-1 0-4 34-92 74-197l75-190-19-30c-20-33-14-68 14-78 9-4 68 14 132 39 171 66 158 52 128 132-81 217-117 301-127 295-6-4-8 0-4 11s-20 87-63 198c-65 164-69 182-55 198 18 20 20 61 3 78-18 18-44 13-145-25zm24-59c-3-3-12-4-19-1-8 3-5 6 6 6 11 1 17-2 13-5zm-27-19c10-12 8-13-10-10-16 3-20 0-16-10 3-9-1-15-10-15-11 0-14 6-10 16 3 9 6 20 6 25 0 14 26 11 40-6zm-150-40c-7-8-17-12-23-8s-3 9 9 14c27 11 28 11 14-6zm293-345c3-11 1-20-4-20s-9 4-9 9-3 17-7 27c-4 11-3 15 4 11 6-4 13-16 16-27zm40-130c3-13 0-23-9-27-12-4-11-8 5-20 21-14 23-45 5-63-7-7-16-4-29 10-10 11-24 20-30 20-17 0-27 28-16 47 4 9 6 24 4 34-4 13 2 18 24 21 36 5 39 3 46-22z"/><path d="m9552 6196c-62-23-82-35-79-47 5-18-24-22-35-5-4 6-8-5-8-24 0-26 17-64 62-139 34-57 67-105 74-108 7-2 11-10 9-16-2-7 22-52 54-102 51-80 61-91 92-95 39-6 42-14 16-50-15-21-25-25-70-25h-52l2-39c2-22 7-44 12-49 11-11 101 19 101 33s39 32 51 24c8-4 8-9 0-17s-3-24 16-56c22-38 24-49 15-74-12-33-2-71 22-80 18-7 43 0 166 48 121 47 146 60 154 80 9 24-11 54-40 61-28 7-73 72-256 369-171 279-213 344-218 344-3-1-42-15-88-33zm58-116c0-5-2-10-4-10-3 0-8 5-11 10-3 6-1 10 4 10 6 0 11-4 11-10zm35-30c16-18 16-20 2-20-17 0-22-23-20-77 2-30-35-38-67-14-29 22-31 66-3 87 10 7 27 19 38 28 26 20 29 20 50-4zm23-159c3-8-1-12-9-9-7 2-15 10-17 17-3 8 1 12 9 9 7-2 15-10 17-17zm-39-15c12-13 19-26 14-28-14-8-48 16-49 35-2 23 8 21 35-7z"/><path d="m10671 5994c-17-12-21-22-16-41 3-14 6-56 6-93 0-72-17-121-50-142-17-10-17-14-3-50 8-21 21-38 28-38 19 0 178 61 190 74 8 8-2 46-41 146-66 169-70 174-114 144z"/><path d="m8860 5929c-68-27-131-55-139-64-23-23-3-69 31-73s37-8 83-127c21-55 43-106 48-113 6-7 12-23 13-35s33-101 71-197c55-142 71-175 86-172 9 2 17 8 17 14 0 5 7 8 15 4 8-3 14-2 14 2-3 17 2 32 10 32 14 0 21-44 8-52-8-5-6-8 7-8 15 0 16-3 6-15-7-8-25-15-40-15s-34-7-41-16c-12-14-14-14-20 3-6 15-8 13-14-11-18-69 26-80 142-35 77 29 82 33 68 49-27 30-19 50 20 50h43c4 0 8-4 8-10 1-5 2-14 3-20 2-16 27-11 45 9 17 18 16 20-14 37-17 11-29 25-27 34 1 8-3 20-9 25-7 6-51 108-98 229-47 120-87 220-90 223s-18 1-34-5c-34-12-55-2-46 21 3 9 11 14 17 10s8 0 4 10c-5 12-1 17 13 17 11 0 20-5 20-12 0-6 2-9 5-6s-6 40-21 83c-25 75-25 78-9 109 14 26 15 37 6 54-18 33-59 27-201-29zm51-166c7-10 10-15 5-11s-17 3-27-2c-22-12-39 8-18 21 20 12 25 11 40-8zm158-335c15-9 26-9 44-1 23 11 23 10 22-32-3-55-10-65-46-65-29 0-29 1-13 17 9 9 13 18 8 20-5 1-28 7-51 13-52 13-61 49-10 41 4 0 7 4 7 9 0 13 16 13 39-2z"/><path d="m9064 5394c-18-15-18-15 9-9 17 3 27 1 27-6s2-10 5-7c7 7-5 38-14 38-4 0-16-7-27-16z"/><path d="m9450 5970c0-9 31-30 45-30 3 0 1 9-5 20-11 20-40 28-40 10z"/><path d="m9500 5880c0-5 5-10 10-10 6 0 10 5 10 10 0 6-4 10-10 10-5 0-10-4-10-10z"/><path d="m9542 5829c-10-15-20-20-39-16-25 5-25 5-19-52 12-107 28-183 36-171 13 20 22-7 10-29-7-14-7-48 2-116 12-92 11-98-10-138-25-47-28-72-10-83 8-5 9-2 5 10-6 14-3 15 14 6 11-6 17-15 14-21-4-5 1-9 9-9 21 0 126 40 154 58l23 15-30 20c-17 10-28 24-25 29 4 6-5 20-20 32-20 16-29 36-38 86-10 59-39 109-59 103-4-1-6 9-5 23 1 20 5 24 22 20 20-5 20-4 8 72-7 42-16 101-21 130-7 49-9 51-21 31z"/><path d="m8455 5770c-38-15-70-32-69-36 2-35 18-64 36-64 12 0 17 4 12 12-4 6-3 8 4 4 6-3 9-16 7-27s2-22 10-25c15-6 95-117 95-133 0-5 10-17 21-25 17-11 27-12 45-4 13 6 24 16 24 22s-5 5-12-2c-12-12-58-17-58-6 0 9 24 30 43 37 9 3 17 11 17 17 0 13-23 13-37-1-7-7-13-7-17-1-8 13 22 44 35 37 13-9 11 0-10 53-10 26-29 73-41 105-12 31-25 59-29 61-3 2-37-9-76-24z"/><path d="m8330 5723c-8-3-35-15-60-26-51-23-54-24-76-26-11-1-14-7-10-17 5-14 4-15-8-5-11 9-20 10-35 1-20-10-20-11-3-58 10-26 76-197 147-379 121-314 127-334 112-351-40-44-2-98 56-81 59 16 87 31 87 45 0 11 7 13 27 8l27-7-17 26c-10 15-13 27-7 27s9 4 6 9-14 7-24 4c-12-3-25 4-36 21-16 26-16 26 14 26 16 0 30 5 30 10 0 6-7 10-15 10-17 0-19 9-6 29 5 7 14 11 20 7 12-8 57 19 65 39 4 11-138 396-211 572-3 7-10 10-16 6s-8 0-4 10c8 21-21 107-36 106-7 0-19-3-27-6zm16-122c-15-17-16-19-1-25 9-3 20-4 25-1 4 3 6-3 3-14-4-16-9-17-33-8-30 11-30 31-1 54 23 18 26 16 7-6zm155-341c5 0 9-4 9-10 0-5-7-10-15-10-7 0-19-8-24-17-9-15-10-12-11 16 0 26 3 32 16 27 9-3 20-6 25-6z"/><path d="m8023 5606c-29-12-57-26-62-31-10-11 84-260 108-289 17-20 45-21 61-1 11 13 11 29 0 85-8 41-11 95-7 135 5 50 3 75-9 96-17 34-22 34-91 5z"/><path d="m7665 5467c-68-28-80-37-83-59-3-28 20-58 46-58 9 0 24-6 32-13 23-18 60-73 60-89 0-8 5-19 12-26 6-6 13-17 14-24 10-58 42-119 87-165 28-29 55-53 59-53 15 0 8 41-16 93-13 29-27 62-30 73-5 16-18 23-48 28-22 4-38 9-34 13 3 3 2 11-3 17-4 6-11 19-14 28-8 23 24 19 53-7 25-22 25-22 0 50-24 71-25 104-3 143 14 25 15 35 5 56-15 34-38 33-137-7z"/><path d="m7333 5339c-70-28-104-46-108-60-7-21-21-25-27-7-7 21-28-2-28-31 0-36 17-51 57-51 23 0 33 5 33 15 0 8 4 15 9 15 4 0 6-12 3-26-4-21 6-36 59-86 35-34 174-167 308-297s251-237 261-239c9-2 44 9 76 24l59 27-40 10c-37 9-54 22-55 38 0 14 52 20 66 8 22-18 27-5 11 32-8 19-25 40-40 48-22 12-24 17-15 37 8 18 8 35-3 66-10 33-49 77-184 208-229 225-315 305-328 307-7 1-58-16-114-38zm128-39c10-6 19-17 19-25 0-19-5-19-35 1-41 27-27 47 16 24zm21-92c-9-9-15-9-24 1-11 10-10 11 5 6 10-5 17-2 17 6 0 7 3 9 7 6 4-4 1-13-5-19zm-148-14c3-8 2-12-4-9s-10 10-10 16c0 14 7 11 14-7zm26-38c0-2-8-10-17-17-16-13-17-12-4 4s21 21 21 13zm119-145c-1-13-2-13-6 2-2 9-9 17-14 17s-9 5-9 11c0 8 5 8 15-1 8-7 14-20 14-29zm56-71c3-5 1-10-4-10-6 0-11 5-11 10 0 6 2 10 4 10 3 0 8-4 11-10zm412-207c-8-7-37 9-31 19 3 5 12 4 20-3 8-6 13-14 11-16zm-17-45c0-5-4-8-10-8-5 0-10 10-10 23 0 18 2 19 10 7 5-8 10-18 10-22z"/><path d="m9344 5183c2-9 8-19 14-21s8 5 5 17c-6 25-22 28-19 4z"/><path d="m6890 5166c-150-54-150-53-128-113 10-26 16-31 34-27 46 12 107-16 161-72 28-30 58-54 65-54 21 0 38 21 38 47 0 18-6 23-27 24-23 1-24 2-6 6 21 4 21 6 8 36-7 18-26 65-40 105-15 39-30 72-33 72-4-1-36-11-72-24zm65-126c3-5 1-10-4-10-6 0-11 5-11 10 0 6 2 10 4 10 3 0 8-4 11-10zm15-41c0-5 5-7 10-4 6 3 10 2 10-4 0-14-53-8-58 7-2 7 5 12 17 12s21-5 21-11z"/><path d="m4365 5140c3-5 10-10 16-10 5 0 9 5 9 10 0 6-7 10-16 10-8 0-12-4-9-10z"/><path d="m6675 5085c-16-8-70-29-119-47-97-36-125-62-106-97 6-11 25-24 42-29 29-7 34-17 85-147 30-77 60-147 67-155 8-8 12-19 10-25-7-18 34-110 50-113 9-2 16 2 16 8s-4 8-10 5c-5-3-10-2-10 3 0 6 6 12 14 15 26 10 38-79 14-94-7-4-1-32 16-76 27-72 32-103 17-103-30 0-18-71 14-84 14-5 143 39 187 64 10 6 23 10 30 10s24 9 38 19l24 19-22 54c-12 29-22 58-22 64 0 18-30 39-38 28-6-10-38-26-54-28-3-1-10-5-15-9-4-5-3-7 2-6 15 4 55-11 55-21 0-20-32-17-55 6-21 20-28 23-45 14-11-6-18-15-15-21 13-20-7-30-25-14-12 11-26 14-41 10-14-5-19-4-15 4 4 6 2 11-4 11s-8 5-4 11c4 8 9 8 17 0 15-15 27-14 27 3 0 19 59 29 78 14 13-11 14-10 8 8-5 15 4 29 37 60l43 39-87 225c-48 124-101 262-118 308-18 45-38 82-44 81-7 0-25-6-42-14zm15-15c0-5-5-10-11-10-5 0-7 5-4 10 3 6 8 10 11 10 2 0 4-4 4-10zm-36-34c-7-17-34-22-34-6 0 6 7 10 15 10s15 5 15 12c0 6 2 9 5 6s3-13-1-22zm76-468c-10-4-23-14-28-24-8-15-11-14-26 7-19 28-21 40-3 33 7-2 24-1 38 4 16 6 26 6 31-2 4-6-1-14-12-18zm250-248c0-5-5-10-11-10-5 0-7 5-4 10 3 6 8 10 11 10 2 0 4-4 4-10zm-5-50c3-5 2-10-4-10-5 0-13 5-16 10-3 6-2 10 4 10 5 0 13-4 16-10zm-81-56c3-8 2-12-4-9s-10 10-10 16c0 14 7 11 14-7zm-127-26c-3-8-6-5-6 6-1 11 2 17 5 13 3-3 4-12 1-19zm104 7c11 6 11 5 2-5-12-14-33-6-33 13 0 8 3 7 9-2 5-8 14-10 22-6z"/><path d="m7310 5081c0-5 41-113 90-240 70-180 90-244 90-282 0-42 3-49 20-49 28 0 25-14-7-36-18-12-23-19-14-22 11-4 11-6 0-13-25-15 22-23 60-9 105 37 141 59 141 83s-27 57-47 57c-27 0-64 47-94 120-18 44-38 80-45 80-15 0-26 28-13 32 12 4-9 68-22 68-4 0-6 6-3 14 8 22-36 105-84 157-41 45-72 62-72 40z"/><path d="m8630 4959c11-19 35-26 44-11 8 13-8 28-32 29-19 2-21-1-12-18z"/><path d="m8690 4910c0-38 2-40 20-30 11 6 20 19 20 30s-9 24-20 30c-18 10-20 8-20-30z"/><path d="m6940 4912c-25-8-30-25-24-79 5-41 2-59-10-79-16-23-16-28-1-67 12-31 22-43 38-44 12-1 41-23 65-50 24-26 39-38 33-26-17 34-13 42 17 40 18-1 27 3 27 13s-8 14-22 12c-26-4-31 13-7 26 15 8 6 39-71 234-8 20-24 27-45 20z"/><path d="m4003 4869c-27-10-30-31-6-50 9-8 14-9 10-3-4 7 2 14 13 17 19 5 28 31 13 40-5 3-18 1-30-4zm12-19c3-5 1-10-4-10-6 0-11 5-11 10 0 6 2 10 4 10 3 0 8-4 11-10z"/><path d="m8609 4858c-10-18-9-20 6-15 9 4 21 7 26 7 15 0 10 17-6 24-9 3-19-3-26-16z"/><path d="m5983 4818c-38-13-38-13-17-63 13-33 18-37 44-33 17 3 28 3 25 0-2-2 6-21 19-41 12-20 40-83 63-141 178-459 176-453 149-494-21-34-20-39 7-32 14 3 35-2 54-14 30-18 32-18 48 0 9 10 14 23 10 29-3 7 0 8 10 5 11-5 23 11 47 62 30 64 32 77 32 169 0 100-11 148-59 259-50 119-156 240-242 278-54 24-145 32-190 16zm291-373c-4-8-8-15-10-15s-4 7-4 15 4 15 10 15c5 0 7-7 4-15zm66-50c9-11 5-21-25-51l-37-37 7 32c4 20 3 31-4 31-6 0-11 9-11 20 0 15 7 20 29 20 16 0 34-7 41-15z"/><path d="m6325 4380c3-5 8-10 11-10 2 0 4 5 4 10 0 6-5 10-11 10-5 0-7-4-4-10z"/><path d="m5843 4763c-35-14-63-29-63-35 0-5-8-7-17-4-10 3-38-5-63-17-67-33-67-87-1-102 26-5 33-18 71-121 30-79 47-113 56-110 8 3 16 1 19-4 9-14 59-12 74 3 11 10 13 5 8-27-8-48-13-53-37-38-23 14-50 16-50 3 0-6 31-90 70-188 64-164 68-179 55-200-21-31-19-59 6-76 18-13 32-10 147 34 69 27 131 54 136 59 8 8 5 9-9 4-17-7-18-6-7 8s6 34-31 130c-25 62-61 157-82 211-20 53-41 100-46 103-14 8-11-9 7-34 14-21 14-22-10-22-22 0-26 5-26 28 0 16-7 37-15 48-20 26-19 33 5 27 11-3 20 0 20 6 0 21-72 201-79 197-4-3-8 8-9 24-3 41-39 120-54 120-7-1-41-12-75-27zm-83-57c0-3-4-8-10-11-5-3-10-1-10 4 0 6 5 11 10 11 6 0 10-2 10-4zm135-43c-8-7-17-13-21-13s-4 3-1 7c4 3 2 12-4 19-17 21-1 35 21 17 15-13 16-18 5-30zm-48 5c-2-7 0-21 5-32 8-14 7-17-4-14-12 4-14 14-9 48 0 6 4 10 7 10s4-6 1-12zm305-567c4-1 6-14 5-31-2-32-21-41-31-14-3 8-10 12-16 9-14-9-12-25 3-25 28 0 40-17 28-39-14-26-38-27-71-2-23 18-23 21-10 48 23 46 41 63 64 58 11-2 24-4 28-4z"/><path d="m10342 4651c-10-6-10-10 0-19 8-6 19-7 26-3 10 6 10 10 0 19-8 6-19 7-26 3z"/><path d="m3788 4643c-12-3-17-13-16-29 1-13 4-24 5-24s21 7 43 16c67 27 41 56-32 37z"/><path d="m7144 4598c-4-6-9-44-10-85-3-58-9-82-29-114-21-32-24-43-14-55 13-16 49-19 49-4 0 6 7 10 15 10 20 0 19 27-2 38-12 7-7 10 23 10 38 1 94 16 94 27 0 3-16 45-36 95-31 77-39 90-59 90-13 0-27-5-31-12z"/><path d="m5281 4547c-74-29-138-59-143-67-16-25 7-67 41-75 27-6 33-15 67-104 37-96 39-99 68-97 27 1 31-2 28-21-2-13 2-23 7-23 6 0 11-7 11-16 0-12-6-15-26-10s-25 4-21-6c3-7 38-97 78-200 71-184 72-188 54-208-26-29-10-74 27-78 29-3 263 82 291 106 17 16 22 49 9 67-4 6-20 15-36 20-26 9-34 25-78 140-28 72-53 132-56 135-4 3-8 12-8 20-1 8-32 93-69 189-54 139-65 178-56 190 20 29 22 37 12 64-15 39-44 35-200-26zm193-456c-6-6-24 19-24 34 1 6 7 1 15-9 8-11 12-22 9-25zm36-110c7-15 6-23-5-35-13-13-13-15 5-21 16-5 19-12 14-28-11-38-21-40-58-12-33 25-36 31-30 64 4 20 9 39 11 44 9 15 53 6 63-12z"/><path d="m7075 4580c3-5 10-10 16-10 5 0 9 5 9 10 0 6-7 10-16 10-8 0-12-4-9-10z"/><path d="m9408 4558c-37-13-35-23 5-25 21-2 27 1 18 6-11 7-11 9 0 13 8 3 12 8 9 10-3 3-17 1-32-4z"/><path d="m9790 4419c0-5 5-7 10-4 6 3 10 8 10 11 0 2-4 4-10 4-5 0-10-5-10-11z"/><path d="m4830 4374c-46-19-87-37-91-42-4-4 0-24 8-44 14-35 18-38 54-38 46 0 103-27 138-64l24-25 17 22c10 12 21 19 25 15 14-13 11-43-4-55-20-15-9-27 18-18 36 11 33 40-15 164-54 141-46 136-174 85z"/><path d="m7257 4404c-9-10 2-24 18-24 9 0 12 6 9 15-6 16-17 19-27 9z"/><path d="m7052 4342c-7-5-10-16-7-25 6-14 8-14 25 1 27 23 12 43-18 24z"/><path d="m4625 4294c-116-48-134-57-128-66 3-6-3-7-16-3-27 8-51-10-51-40 0-26 15-41 52-50 17-5 30-17 37-36 10-29 11-30 36-13 14 9 28 14 32 11 9-9-17-37-34-37-18 0-17-1 56-193 31-82 64-157 73-167 10-10 16-25 13-32s11-53 30-102c32-83 34-91 20-112-21-32-19-60 6-77 23-16 45-13 114 18 22 10 43 19 47 19 16 2 20 17 8 31-16 20-2 19 20 0 16-14 22-14 61 1 57 22 79 42 79 69s-16 42-49 47c-22 3-38 37-170 380-104 270-150 378-161 377-8 0-42-12-75-25zm141-209c0-26-4-35-15-35-27 0-61 12-61 21 0 5 7 6 15 3 9-4 15 0 15 10 0 22 20 20 21-1 1-18 2-16 14 25 7 20 10 14 11-23zm-96-82c0-7 5-13 11-13 19 0 4-43-19-51-17-7-29-2-57 22-37 33-41 44-25 69 9 13 12 12 25-4 14-18 15-18 15-2 0 10 4 14 12 10 8-5 9-1 5 12-5 14-2 12 13-6 11-14 20-31 20-37zm135 17c3-5-1-10-9-10-9 0-16 5-16 10 0 6 4 10 9 10 6 0 13-4 16-10zm-20-48c-2-2-12-1-22 3-10 5-21 7-25 7-10-2-10 2-2 23 6 14 9 13 30-6 13-12 22-24 19-27zm108-199c4-3-2-16-14-31-25-32-71-45-96-26-11 8-13 13-5 14 6 0 11 3 11 8-6 39 57 60 104 35zm-155-65c16-16 15-58-1-58-7 0-21 16-30 35-16 33-16 35 1 35 10 0 23-5 30-12zm192-38c0-12-48-25-58-16-8 9 18 26 41 26 9 0 17-4 17-10zm-70-206c0-8 7-14 15-14 20 0 19-19-1-27-23-9-62 13-61 34 3 32 47 39 47 7z"/><path d="m4580 4010c0-5 5-10 10-10 6 0 10 5 10 10 0 6-4 10-10 10-5 0-10-4-10-10z"/><path d="m4636 4011c-4-5-2-12 3-15 5-4 12-2 15 3 4 5 2 12-3 15-5 4-12 2-15-3z"/><path d="m7185 4300c-3-6 1-7 9-4 18 7 21 14 7 14-6 0-13-4-16-10z"/><path d="m7066 4275c7-17 44-21 44-4 0 6-7 9-15 5-8-3-15-1-15 4 0 6-4 10-10 10-5 0-7-7-4-15z"/><path d="m8419 4172c-13-9-28-17-34-18-5 0-18-2-27-2-13-2-16-9-13-33 2-19-2-37-11-47-13-13-18-12-37 9-12 13-21 28-19 33 2 4-3 6-10 3-21-8-534-206-643-248-480-184-479-183-483-218-3-31-3-32 30-26 23 4 45 0 71-14 55-28 66-39 73-77 6-32 14-38 51-37 7 1 10-3 7-8-11-18 30-8 125 31 53 22 102 40 109 40 6 0 0 11-13 25-27 26-33 65-11 65 7 0 19 7 26 15s21 15 31 15c15 0 18-5 14-22-14-62-13-78 1-78 8 0 14 4 14 10 0 5 3 9 8 8 14-3 92 25 92 34 0 5-9 6-20 3-11-4-20-2-20 4s5 11 10 11c6 0 10 6 10 14 0 22 19 29 37 14 10-8 14-8 10-1-4 6-3 14 3 18s10-4 10-19c0-19 5-24 23-22 26 3 227 79 227 86 0 3-14 5-31 6-16 1-35 6-41 12-16 16 9 72 33 72 10 0 21 4 24 10 4 6-1 7-10 3-13-4-16-1-14 12 2 9 22 23 44 31 41 15 90 11 80-6-7-12 5-13 23-2 21 14 3 44-23 39-21-3-23 0-21 37 1 40 2 41 36 42 64 2 82-8 96-54 6-24 17-49 23-56 9-10 9-15 1-18-6-2-12-10-13-18-2-8-6-21-11-29s-5-12 1-10c347 132 453 176 453 189 0 8-12 24-25 35-31 24-37 30-71 73-14 17-29 32-32 32-4 0-13-15-21-32-17-41-54-98-63-98-4 0-17 14-29 32-13 17-18 28-11 25 6-5 16 2 23 15s19 28 28 35c10 8 11 12 4 13-6 0-15-4-18-10-3-5-11-10-18-10-8 0-8 3 1 12 18 18 15 34-12 51-21 14-26 14-47-1zm-29-180c0-5-10-17-22-28-12-10-18-14-15-7 4 6 3 14-3 18s-8 11-5 16c8 11 45 12 45 1zm-40-84c0-23-3-29-9-19-8 12-4 51 5 51 2 0 4-15 4-32zm-640-288c0-5-7-10-16-10-8 0-12 5-9 10 3 6 10 10 16 10 5 0 9-4 9-10zm-130-50c0-5-4-10-10-10-5 0-10 5-10 10 0 6 5 10 10 10 6 0 10-4 10-10z"/><path d="m1767 4142c-12-2-16-9-13-19 5-13 4-14-8-3-12 9-22 9-47-4-18-9-38-16-45-16-19 0-27-18-20-45 4-16 11-22 21-18 12 4 13 8 4 19-7 8-10 16-8 17 11 7 77 27 91 27 15 0 55 37 47 43-2 2-12 2-22-1z"/><path d="m4912 4127c-6-7-11-41-10-75 0-37-4-68-12-77-22-27 4-92 44-109 18-7 47-32 65-55 23-29 40-41 54-39 45 7 43 29-21 194-34 87-67 161-74 166-19 11-34 10-46-5z"/><path d="m4115 4096c-71-28-80-35-83-59-4-32 13-57 38-57 30 0 66-38 99-104 28-55 35-63 54-58 12 3 25 10 29 16 5 7 8 4 8-7s-10-19-29-23l-29-6 16-44c9-25 31-59 49-76l33-32v29c0 23 3 26 12 17 10-10 10-17 1-31-10-15-8-22 6-35 21-19 31-20 31-3 0 13-56 160-86 225-29 62-40 139-25 175 22 55 23 73 6 90-22 23-36 21-130-17z"/><path d="m1750 4050c0-5 5-10 11-10 5 0 7 5 4 10-3 6-8 10-11 10-2 0-4-4-4-10z"/><path d="m1474 4029c-32-15-41-26-41-45 0-28 27-33 47-9 7 8 21 15 31 15 14 0 19 7 19 30 0 35-2 35-56 9zm36-3c0-3-4-8-10-11-5-3-10-1-10 4 0 6 5 11 10 11 6 0 10-2 10-4z"/><path d="m1700 4040c0-5 4-10 9-10 6 0 13 5 16 10 3 6-1 10-9 10-9 0-16-4-16-10z"/><path d="m1730 4005c-10-12-9-16 5-21 19-8 40 9 31 25-10 15-21 14-36-4z"/><path d="m1697 3991c-3-12-1-21 3-21 14 0 19 15 11 29-6 9-10 7-14-8z"/><path d="m3835 3989c-27-11-52-25-53-30-2-5-8-7-12-4-14 9-140-46-150-64-14-28 10-64 49-72 20-4 53-26 85-57 487-473 478-464 488-449 9 15 17 7 21-21 5-34 75-101 98-95s24 19 3 31c-29 16-12 46 29 53 36 6 37 5 37-23 0-26 3-29 23-23 12 4 26 11 31 15 13 13-1 41-24 47-17 5-19 11-14 39 4 24-3 56-27 119l-32 86-174 168c-133 129-179 168-194 164-13-4-19 0-19 11s5 15 13 10c6-4-15 21-48 55-33 33-64 61-70 60-5 0-32-9-60-20zm200-319c3-6-1-13-10-16-19-8-30 0-20 15 8 14 22 14 30 1zm173-122c9-9 18-9 37 0 14 7 27 12 28 12s1-18 0-41c-1-47-12-61-49-65-20-2-24 0-15 9 18 18 13 25-21 32-85 19-86 53-2 64 5 0 15-4 22-11z"/><path d="m4201 3516c-9-10-5-13 18-12 18 1 27 5 24 14-7 16-28 15-42-2z"/><path d="m6260 3990c0-5 7-10 16-10 10 0 14-6 10-15-3-8-1-15 3-15 18 0 41 12 41 22 0 6-7 8-15 4-9-3-15 0-15 9 0 8-9 15-20 15s-20-4-20-10z"/><path d="m1985 3980c-3-5 1-10 10-10s13 5 10 10c-3 6-8 10-10 10s-7-4-10-10z"/><path d="m1644 3969c-3-6-2-15 3-20s9-1 10 11c2 22-2 25-13 9z"/><path d="m1958 3953c-16-4-34-33-20-33 12 0 48 28 42 32-3 3-12 3-22 1z"/><path d="m1604 3899c-3-6 3-21 15-32 11-12 21-16 21-10 0 7 7 10 15 7 11-5 13-2 9 10-3 9-10 14-14 11s-10 2-14 10c-6 18-22 20-32 4zm24-24c-3-3-9 2-12 12-6 14-5 15 5 6 7-7 10-15 7-18z"/><path d="m1952 3903c-6-2-10-9-7-13 7-11 35-2 35 11 0 10-8 10-28 2z"/><path d="m1552 3893c-17-7-5-23 19-23 10 0 19 7 19 15 0 15-14 18-38 8z"/><path d="m8091 3787c-7-7-7-14 0-23 8-10 19-9 55 4 24 9 44 19 44 22 0 10-88 8-99-3z"/><path d="m3144 3740c-16-16 13-90 35-90 9 0 23-6 32-13s66-140 126-297c61-156 116-286 122-288 7-2 15 5 18 17 6 25 18 27 27 4 4-9-2-25-14-38-24-25-25-35-5-35 18 0 17 1 20-68 2-76 14-81 64-27 41 45 68 93 74 134 2 11 6 24 10 27 4 4 7 39 7 78 0 63-4 92-25 184-4 17-10 22-25 17-19-6-20 1-6 42 5 17-4 43-34 101-50 97-120 176-194 221-48 29-67 34-138 38-57 3-87 1-94-7zm433-392c-3-8-6-5-6 6-1 11 2 17 5 13 3-3 4-12 1-19z"/><path d="m3038 3681c-60-53-98-138-105-237-5-68-4-77 17-99 13-14 29-25 36-25 6 0 17-7 24-15 7-9 19-14 26-11 16 6 34-23 34-53 0-17-6-21-35-21-24 0-39 6-47 20-20 31-31 23-23-17 8-44 63-160 108-225 23-35 37-46 49-42 10 3 18 1 18-5 0-19 18-12 23 10 13 48 36 4 40-75 3-49 193-89 243-51 10 8 17 15 14 15-3 1-14 3-25 5s-21 9-23 14c-2 6-12 11-22 11-16 0-38 45-27 57 3 2-23 75-57 161-61 154-62 157-90 154-25-3-27-2-16 17 6 12 15 19 21 16 17-11 9 22-11 48-11 14-20 30-20 37 0 21-44-1-77-39-31-34-34-35-47-17-9 11-20 15-28 10-7-4-2 5 12 20 13 14 29 25 36 22s20 4 29 14c10 11 21 17 26 15 4-3 10-1 14 5s11 8 16 5c16-10 10 15-23 103-31 81-32 85-15 113 15 28 15 32 0 64-9 19-24 35-33 35-10 0-37-18-62-39z"/><path d="m3760 3707c0-8 9-22 20-32 13-11 18-25 14-37-3-10 23-92 62-193 53-139 71-175 86-175 13 0 18-7 18-26 0-14 4-23 10-19 6 3 10 15 10 26 0 10 5 19 10 19 6 0 10-6 10-13 0-8 11-24 25-37 28-27 32-40 10-40-8 0-15-6-15-14s-9-18-20-21-23-17-26-30-12-29-20-36c-37-30 0-38 62-13 96 39 114 49 120 66 9 31-6 58-36 64-51 11-78 54-153 245-68 173-75 187-123 232-54 50-64 55-64 34z"/><path d="m6918 3597c-32-12-58-26-58-30 0-5 4-6 10-2 5 3 16-8 25-24 17-35 10-43-42-46-30-2-35 1-40 27-6 31-10 31-82 0-20-8-30-17-23-19 24-9 13-30-14-25-19 3-22 7-12 14 9 7 8 8-7 5-11-2-19-8-18-14s-4-14-12-17-15-1-15 3c0 16 0 16-243-79-59-23-110-46-113-51s-10-7-15-3c-5 3-21-2-34-10-14-9-25-14-25-10s-7 0-16-7-28-15-42-17-38-10-53-18c-15-7-35-14-44-14-8 0-24-9-35-20s-20-16-20-10c0 5-15 3-32-5-25-10-32-19-30-36 2-16-2-20-14-15-8 3-18 6-20 6-3 0-2 5 1 10 8 13 1 13-41-5-31-13-33-16-22-34 9-15 9-24 2-31-8-8-13-3-17 19-6 29-8 30-37 20-16-6-30-15-30-21s-6-8-13-5c-8 3-20 1-27-3-11-7-11-11-1-24 19-22 6-46-24-46-14 0-25-3-25-8 0-4-15-16-34-26-18-10-39-29-46-42s-16-21-21-19c-4 3-20 0-35-5-40-16-74-5-73 23 0 12 3 17 5 10 3-7 12-9 20-6s14 0 14-6 5-11 11-11c18 0-8 27-31 33-13 3-27-5-44-28-14-18-23-35-20-38s-12-1-33 4-42 9-47 9c-6 0-5 5 1 11 8 8 17 8 32-1 18-9 25-7 51 21 16 18 27 35 25 37-3 3-22-2-42-11-21-8-65-25-97-38-33-13-54-25-48-27 8-2 9-9 2-23-8-15-7-17 5-13 11 5 13 2 9-10-6-15-22-20-51-17-7 1-10-5-7-13 4-9 26-17 62-21 66-8 87-13 54-14-13-1-20-5-17-11 4-6 11-7 17-4 7 4 8 2 4-4-11-18-34-14-40 6-2 9-4-2-3-25 1-43-8-69-10-30-3 27-33 51-47 37s-26-12-20 3c3 9-3 13-17 13-12-1-24 6-27 14-4 12-2 13 9 3 7-7 17-13 21-13 11 0 5 50-8 58-15 11-14 29 2 29 7 0 14-4 14-9 0-4 5-8 10-8 6 0 10 9 10 20 0 24-17 25-71 3-34-13-38-18-25-25 14-8 15-12 4-26-11-13-11-15 4-9 12 4 16 1 15-14-1-18-17-28-17-10 0 13-40 21-41 8 0-7-5 0-10 15-9 25-13 26-42 16-55-17-119-49-113-55 3-3 12-1 20 6 11 9 15 8 20-6 4-10 4-15 1-11-4 3-19 2-35-2-23-7-28-5-23 6 6 16-13 19-22 4-3-5-13-10-21-10s-33-9-57-19c-23-10-71-30-107-44-36-15-59-26-52-27 6 0 12-5 12-10 0-6-6-9-12-8-7 2-12-3-10-10 1-8-2-11-7-7-6 3-7 13-4 22 5 12 2 15-8 11-84-33-99-42-89-48 6-4 10-11 9-16-3-20 2-28 10-16 7 11 12 10 27-6 11-10 26-21 34-24 9-3 2-8-17-12-17-4-37-14-43-22-10-11-8-15 10-22 19-7 20-10 7-15-8-3-21 1-27 8-7 8-16 13-20 10-5-3-6 4-3 15s11 20 18 20 19 7 26 17c13 15 12 15-8 5-12-7-34-12-50-12-15 0-37-7-47-15-29-22-36-19-36 20 0 34-1 35-22 24-13-7-32-14-43-15-45-5-80-29-81-54-1-14 3-28 8-31 6-4 6-9-1-13-6-4-11-3-11 3 0 7-8 7-26 1-25-10-43-4-64 21-3 3-18 1-33-6-27-11-28-13-12-29 10-10 25-14 36-11 21 7 28-18 8-30-5-4-8-12-6-18 11-33-55-43-132-18-19 6-37 9-40 6-4-2-8 5-8 16-1 10 5 19 13 19s14 5 14 11c0 7-9 6-23-4-13-8-46-22-73-30-27-9-103-36-169-62s-167-65-225-87c-81-30-106-44-106-58 0-15 11-20 56-26 30-4 59-7 63-5 5 1 11-8 14-19s9-20 14-20c19 0 8-50-16-75-14-14-29-25-34-25-4 0-17-13-29-29-30-41-83-65-126-57-38 7-46 1-51-43l-4-28 183 71c148 57 180 73 168 82-8 6-17 19-18 29-2 14 3 16 28 13 19-3 32 0 35 9 3 7 9 10 14 7 6-3 21 1 34 10 30 20 46 20 39 1-9-24 23-29 52-9 64 45 80 53 109 52 46-2 107 21 101 38-3 8-1 14 4 14 6 0 10 5 10 10 0 6-7 10-16 10-11 0-14 5-10 16 5 13 4 14-7 6-7-6-12-25-11-42s0-29-3-27c-2 3-17 2-32-3-23-6-27-5-26 11 1 10 4 22 8 25 4 4 7 17 7 28 1 24 22 56 38 56 7 0 9 8 5 18-3 9-3 14 1 10 5-4 18-3 30 1 11 5 30 5 41 0 19-7 19-8 1-8-19-1-19-2 1-23 32-36 39-53 20-45-12 5-17 1-17-12 0-11-3-26-6-34-4-10 22-4 86 21 62 24 89 40 86 49-3 7-1 13 3 13 5 0 11-4 13-10 2-8 273 88 363 129 11 5 41 16 68 26 26 9 47 21 47 26s12 9 28 10l27 1-27 10c-16 5-28 17-28 26 1 15 2 15 15-1 9-13 20-17 36-12s19 4 14-6c-6-9-3-11 9-6 10 4 20 7 22 7 3 0 3 4-1 9-3 5 0 13 6 17 6 3 15 0 20-7 6-11 11-11 21-1 6 6 8 12 2 12-5 0-10 10-11 23 0 12 1 17 4 10 8-20 31-3 27 20-2 12-2 17 2 10 4-9 11-7 27 7 11 11 23 17 26 14s-1-9-8-13c-10-6-10-10-1-16 8-5 6-11-7-20-10-7-15-17-11-21s14-2 21 4c8 7 16 10 19 7s11 1 18 10c10 12 10 15 0 15-9 0-8 6 4 19 10 11 15 24 12 30-4 5 1 14 10 19 14 8 12 10-10 14-21 4-26 2-21-9 3-10 1-13-9-10-8 3-17 1-19-6s-7-9-11-5c-4 3-3 15 3 27 9 16 8 22-6 30-10 6-13 11-7 11 5 0 15-5 22-12 9-9 15-9 24 0 15 15 29 15 26 0-2-6 8-14 22-18s24-12 22-18c-1-7 9-12 23-12 13 0 30-6 37-14s19-10 28-6c8 5 35 14 60 22 34 10 39 14 23 16-13 2-23 10-23 17 0 8-9 16-19 20-11 3-25 13-32 21-8 10 1 7 24-6 20-12 40-26 43-31 9-15 26-10 20 7-3 8-2 12 4 9s10-2 10 4c0 5-6 12-12 14-9 4-10 6-1 6 6 1 18-6 27-14 13-13 15-13 20 3 3 9 4 5 2-10-2-16-2-28-1-28 10 0 41 38 38 47-2 6 1 14 6 18 6 3 8 0 5-8-9-23 15-31 37-12 18 18 18 18-6 43-14 14-25 30-24 36 0 7 2 8 5 0 2-6 18-8 34-6 31 4 35-1 30-42-1-11 3-16 12-14 7 3 12 13 12 22-1 9 3 15 10 13 6-3 10-10 9-16-2-6-1-11 1-11 12 0 67 28 67 33-3 26 1 30 12 16 11-15 24-12 137 33 69 27 127 54 128 59 2 5 8 6 14 3 11-7 28 13 28 34 0 6-8 12-17 12-17 1-17 2 0 15 16 12 21 11 38-6 11-11 17-25 13-31-5-8-1-9 12-4 10 5 27 11 37 13 18 6 24 23 7 23-5 0-10 5-10 12 0 6 3 8 6 5 4-3 15-2 26 4 22 12 47 1 27-12-9-6-10-9-2-9 6 0 18 6 25 13 7 6 19 12 26 13 34 3 36 4 25 15-6 6-9 18-6 26 5 12 8 12 27-1 23-15 72-11 83 7 3 5 1 7-5 3-6-3-13-2-16 3-4 6 6 8 23 6 18-2 62 9 113 30 46 19 78 34 71 35-7 0-10 7-7 15 4 8 1 15-5 15-14 0-8 43 7 48 7 2 14-13 18-37l6-40 62 23c33 13 95 36 136 51s80 34 86 41c6 8 14 11 17 8 5-6 101 27 187 64 19 9 40 17 45 18 6 1 23 7 40 14 22 8 26 13 16 20-9 5-2 8 21 7 20 0 64 11 99 25s85 34 111 44c25 10 45 22 42 25-2 4 2 7 9 6 38-1 57 5 57 17 0 15-21 26-50 26-11 0-35 16-54 36-29 30-37 34-42 20-4-12-13-14-33-10-14 4-39 6-55 5-29 0-66 22-66 41 0 4 8 8 17 8 13 0 14 3 5 12-8 8-15 8-26-1s-14-8-12 5c2 25-12 25-76 1zm151-158c17 10 20 9 15-4-4-8-12-15-19-15s-15-6-17-12c-3-7-10 3-16 22-10 31-10 33 2 17 12-15 18-16 35-8zm-169-14c0-27-7-30-30-15-10 6-11 10-2 10 6 0 12 7 12 15s5 15 10 15c6 0 10-11 10-25zm-360-1c0-8-5-12-10-9-6 4-8 11-5 16 9 14 15 11 15-7zm-30-8c0-3-4-8-10-11-5-3-10-1-10 4 0 6 5 11 10 11 6 0 10-2 10-4zm160-10c0-2-7-9-15-16-13-11-14-10-9 4s24 23 24 12zm-100-16c0-5-4-10-9-10-6 0-13 5-16 10-3 6 1 10 9 10 9 0 16-4 16-10zm129-11c-11-6-11-11-2-20s9-15-2-25c-7-8-18-14-24-14-14 0-14-27-1-35 5-3 7 0 4 8-6 17 22 31 32 16 3-6-2-18-13-28-15-15-21-15-31-5-15 16-15 37-1 51 6 6 9 19 7 29-4 20 21 46 35 37 5-3 3-9-4-14zm-212-22c-1-6 8-13 20-15s27-10 35-19c12-15 11-15-10-4-12 6-26 10-31 7-4-3-14 6-21 19-17 32-25 31-46-5-18-29-42-46-52-35-3 3 0 5 6 5 7 0 12 7 12 16s5 12 12 8c8-5 9-2 5 10-4 10-3 15 3 11 5-3 14 4 20 15 9 16 15 18 30 10 11-6 19-16 17-23zm-140-12c0-8-4-15-9-15-10 0-11 14-1 23 9 10 10 9 10-8zm603-15c0-5-2-10-4-10s-12-3-22-7c-16-6-17-5-4 10 17 19 30 22 30 7zm-643-15c-11-7-26-11-34-8-12 5-14 1-8-15 4-14 2-22-5-22-6 0-8 5-5 10 4 6-6 11-22 11-23 2-24 2-5 6 12 2 22 8 22 13 0 8 26 16 60 18 11 1 11-2-3-13zm213-22c0-14-26-18-34-4-7 11 0 18 19 18 8 0 15-6 15-14zm-105-3c-3-5-12-10-18-10-7 0-6 4 3 10 19 12 23 12 15 0zm35 6c0-3-4-8-10-11-5-3-10-1-10 4 0 6 5 11 10 11 6 0 10-2 10-4zm136-12c-23-16-20-34 7-35 20 0 20-1 3-8-12-4-31-2-48 6-34 17-37 27-5 18 20-6 21-5 5 8-25 20-23 23 18 23 30 0 33-2 20-12zm-240-1c-10-11-37-12-30-2 3 5 12 9 21 9s13-3 9-7zm-166-47c0-5-9-1-20 9s-17 22-14 27c6 9 33-20 34-36zm50 34c0-5-4-10-10-10-5 0-10 5-10 10 0 6 5 10 10 10 6 0 10-4 10-10zm79-22c5-15 4-26-3-30-19-13-29-9-17 6 6 7 9 21 5 30-3 9-3 16 0 16 4 0 10-10 15-22zm167-3c15 0 29-7 32-15 5-13 3-13-13 0s-19 13-33-8c-8-12-21-22-29-22-9 0-13-6-9-15 3-8 1-15-4-15-19 0-10 37 13 48 12 6 16 11 10 11-7 1-13 11-13 24 0 18 2 19 10 7 5-8 21-15 36-15zm274 21c0-2-7-6-15-10-8-3-15-1-15 4 0 6 7 10 15 10s15-2 15-4zm44-8c-3-4-9-8-15-8-5 0-9 4-9 8 0 5 7 9 15 9s12-4 9-9zm-451-25c5-26 4-26-9-8-16 22-18 35-5 35 5 0 11-12 14-27zm-139 1c3-8 2-12-4-9s-10 10-10 16c0 14 7 11 14-7zm497-7c-10-9-11-8-5 6 3 10 9 15 12 12s0-11-7-18zm-630-14c-6-11-4-21 6-31 12-12 12-16 1-23-21-13-32-10-19 5 7 8 8 15 2 18-5 1-7 15-4 30s9 25 14 22c6-3 6-12 0-21zm419 13c0-3-4-8-10-11-5-3-10-1-10 4 0 6 5 11 10 11 6 0 10-2 10-4zm86-14c11 2 19-3 19-11s-10-15-22-16c-14-1-23 4-23 12 0 11-4 11-22 2-23-12-23-12-4 10 13 14 22 18 26 10 4-6 16-9 26-7zm51-14c-3-8-6-5-6 6-1 11 2 17 5 13 3-3 4-12 1-19zm-647-7c0-5-8-17-17-28-10-10-14-13-10-6 5 6 6 16 3 22-5 8 2 14 22 20 1 1 2-3 2-8zm307-11c-1-11-5-20-9-20-3 0-6 9-5 20s5 20 9 20c3 0 6-9 5-20zm113 16c0-3-4-8-10-11-5-3-10-1-10 4 0 6 5 11 10 11 6 0 10-2 10-4zm-240-28c0-11-12-10-30 2-12 7-10 9 8 7 12 0 22-5 22-9zm-150-13c0-9-6-12-16-8-13 5-13 7-2 14 17 11 18 11 18-6zm490-3c0-5-7-9-15-9s-15 4-15 9c0 4 7 8 15 8s15-4 15-8zm-583-23c-25-15-11-29 22-23 16 4 32 1 35-5 4-6 12-9 17-6 11 8 11-6 0-24-5-8-21-15-34-15-14-1-23 2-21 6 10 15-8 31-18 17-7-10-11-11-14-2-3 7-14 2-30-13-27-28-30-36-10-28 10 4 12-2 8-22-4-21-2-25 9-20 8 4 3-2-10-13-13-12-31-20-40-20-14 1-13 2 2 6 9 2 17 8 18 11 0 4 2 14 4 23 1 8-4 24-12 35-14 19-15 18-37-8-12-16-26-28-30-28-5 0-3 7 4 15 6 8 9 18 6 23s9 13 27 17c17 4 35 9 40 10 4 1 10 3 15 4 4 1 1 5-7 10-20 13-3 33 21 25 15-4 18-3 13 6-7 12 11 30 30 30 6-1 2-5-8-11zm303 1c0-5-5-10-11-10-5 0-7 5-4 10 3 6 8 10 11 10 2 0 4-4 4-10zm60 0c0-5-4-10-10-10-5 0-10 5-10 10 0 6 5 10 10 10 6 0 10-4 10-10zm-166-16c5-13 3-14-6-7-7 6-20 13-28 16-10 4-8 6 6 6 12 1 25-6 28-15zm46 12c0-2-7-9-15-16-12-10-15-10-15 4 0 9 7 16 15 16s15-2 15-4zm-410-16c12-8 11-10-7-10-12 0-25 5-28 10-8 13 15 13 35 0zm60-10c0-5-5-12-11-16-14-8-33 11-25 25 7 11 36 4 36-9zm412-7c12-15 11-15-9-4-13 6-23 8-23 3 0-4-9-8-19-8-13 0-17 4-11 11 14 17 47 15 62-2zm85-8c-4-8-13-15-22-15-13 0-12 3 3 18 19 21 27 20 19-3zm-231-4 25-19-31-7c-16-4-30-13-30-21s-8-14-17-13c-11 0-13 3-5 6 14 6 16 33 2 33-17 0-11 28 8 33 9 3 19 5 20 6 2 0 15-8 28-18zm64-11c0-11-2-20-4-20s-6 9-9 20-1 20 4 20 9-9 9-20zm67-6c-3-3-12-4-19-1-8 3-5 6 6 6 11 1 17-2 13-5zm-80-46c-3-8-6-5-6 6-1 11 2 17 5 13 3-3 4-12 1-19zm-451-23c-3-8-1-15 3-15 5 0 8-8 7-17-2-10 4-28 12-40 12-19 12-23 1-23s-11-2 1-10 10-10-8-10c-15 0-21 4-17 13 4 6 0 3-9-7-8-10-17-23-18-28-4-11-38 1-38 14 0 5 4 7 9 4 4-3 16 3 25 13 16 18 15 19-10 24-15 3-34 3-41 0-17-7-17-33 0-34 10 0 10-2 0-6-15-5-18-24-4-20 5 1 9-2 10-8 1-5-4-10-9-10-6 0-15-7-20-15s-10-10-10-4 3 14 7 18c4 3 7 15 8 26 2 26-22 26-30 0-3-11-11-20-18-20-8 0-8 3 1 12 28 28-1 46-38 23-6-3-10 3-10 15s4 18 10 15c6-4 18-1 27 7 14 11 16 11 8-1-6-10-4-12 4-7 7 5 10 14 8 20-3 7-1 19 4 27 7 11 9 10 10-6 1-11 1-26 0-32-1-7 2-13 7-13 4 0 14 6 21 13 6 6 31 12 54 12 39 0 42 2 39 25-2 14-8 30-13 37-7 7-5 13 3 16 20 8 21 8 14-8zm51-37c-3-8-6-5-6 6-1 11 2 17 5 13 3-3 4-12 1-19zm-247-28c0-5-2-10-4-10-3 0-8 5-11 10-3 6-1 10 4 10 6 0 11-4 11-10zm250 6c0-3-4-8-10-11-5-3-10-1-10 4 0 6 5 11 10 11 6 0 10-2 10-4zm-280-27c0-6-4-7-10-4-5 3-10 11-10 16 0 6 5 7 10 4 6-3 10-11 10-16zm340-4c0-8-4-15-9-15-13 0-22 16-14 24 11 11 23 6 23-9zm-485-45c-3-5-12-10-18-10-7 0-6 4 3 10 19 12 23 12 15 0zm175-15c-7-8-16-12-21-9-13 8-1 24 18 24 13 0 13-3 3-15zm0-57c0-13-23-5-28 10-2 7 2 10 12 6 9-3 16-11 16-16zm-532-11c8-10 7-13-7-14-10-1-18 5-18 13 0 17 11 18 25 1zm196-2c15-11 16-15 5-15-8 0-20 5-27 12-9 9-12 8-12-5 0-9 5-17 12-17 13 0 2-14-13-16-5-1-12-2-15-3-4 0-1-7 6-15 10-13 7-13-18-4-33 13-33 43 0 35 13-4 18-1 15 8-5 12 10 35 23 35 3 0 14-7 24-15zm-269-25c3-5 1-10-4-10-6 0-11 5-11 10 0 6 2 10 4 10 3 0 8-4 11-10zm330 0c3-5 1-10-4-10-6 0-11 5-11 10 0 6 2 10 4 10 3 0 8-4 11-10zm-371-12c-4-6 1-17 11-25 14-9 15-13 4-13-8 0-20 4-28 9-12 8-12 12-2 25 16 19 26 21 15 4zm311-18c-4-12-9-19-12-17-3 3-2 15 2 27s9 19 12 17c3-3 2-15-2-27zm-360-10c3-5-1-10-10-10s-13 5-10 10c3 6 8 10 10 10s7-4 10-10zm215 0c0-5-4-10-10-10-5 0-10 5-10 10 0 6 5 10 10 10 6 0 10-4 10-10zm-320-34c-14-14-22-2-14 18 5 14 9 15 15 4 4-7 4-17-1-22zm216-2c-6-22-4-25 14-19 12 4 20 2 20-5 0-6-4-8-10-5-5 3-10 2-10-4 0-5 8-12 18-15 9-3 4-3-13 0-16 3-35 5-42 6s-9 6-5 12 7 13 8 16c2 13 17 40 21 40 3 0 2-12-1-26zm314-13c0-5-7-11-15-15-9-3-15 0-15 9 0 8 7 15 15 15s15-4 15-9zm-553-26c-15-16-19-13-11 9 3 9 10 13 15 10s3-11-4-19zm59 10c14-13 13-15-6-15-12 0-19 4-16 9 4 5 0 12-6 14-10 4-10 6 0 6 7 1 20-6 28-14zm54 11c0-2-8-10-17-17-16-13-17-12-4 4s21 21 21 13zm75-26c3-5 1-10-4-10-6 0-11 5-11 10 0 6 2 10 4 10 3 0 8-4 11-10zm-55-32c0-4-7-5-15-2-8 4-15 2-15-4 0-5 10-9 23-8s21 7 19 16c-1 10 3 8 13-4 13-17 15-18 15-3 0 9 5 17 10 17 7 0 7-6 2-17-5-10-7-25-4-33 4-12 2-13-9-4-22 17-59 15-59-3 0-13-3-13-15-3-8 7-12 17-9 22 13 20-20 27-41 9-27-24-75-53-75-46 0 13 28 34 35 27 5-4 6 0 2 10-7 21 3 31 18 18 8-7 18-4 30 10 14 15 21 17 31 9 11-9 15-7 20 6s9 14 15 3c5-7 9-16 9-20zm-130 8c0-11-19-15-25-6-3 5 1 10 9 10 9 0 16-2 16-4zm237-22c-3-3-12-4-19-1-8 3-5 6 6 6 11 1 17-2 13-5zm-409-39c-3-3-9 2-12 12-6 14-5 15 5 6 7-7 10-15 7-18zm-58-15c0-5-4-10-10-10-5 0-10 5-10 10 0 6 5 10 10 10 6 0 10-4 10-10zm70-10c0-5-5-10-11-10-5 0-7 5-4 10 3 6 8 10 11 10 2 0 4-4 4-10zm27-20c-3-11-1-20 4-20 4 0 6-7 2-15-8-22-16-10-19 25-1 17 3 30 8 30 6 0 8-9 5-20zm101-5c-3-3-9 2-12 12-6 14-5 15 5 6 7-7 10-15 7-18zm-358-36c0-11-4-18-10-14-5 3-7 12-3 20 7 21 13 19 13-6zm170 0c0-11-4-18-10-14-5 3-7 12-3 20 7 21 13 19 13-6zm190 11c0-5-4-10-10-10-5 0-10 5-10 10 0 6 5 10 10 10 6 0 10-4 10-10zm-150-92c-12-5-25-6-28-3s0 5 7 5 10 4 7 9c-4 5 4 7 16 3l22-5zm-375 2c3-5-1-10-10-10s-13 5-10 10c3 6 8 10 10 10s7-4 10-10zm79-25c11-8 15-15 9-15-7 0-14 4-18 10-3 5-13 6-22 3-11-4-14-3-9 5 9 15 17 15 40-3zm186 1c0-3-4-8-10-11-5-3-10-1-10 4 0 6 5 11 10 11 6 0 10-2 10-4zm-125-66c-3-5-11-10-16-10-6 0-7 5-4 10 3 6 11 10 16 10 6 0 7-4 4-10z"/><path d="m5940 3085c7-9 15-13 17-11 7 7-7 26-19 26-6 0-6-6 2-15z"/><path d="m2596 3524c-9-8-16-24-16-35 0-17-8-19-75-19-82 0-84-2-64-59 7-20 18-31 30-31 52 0 118-52 196-152 48-63 83-76 103-37 9 17 1 46-46 167-51 132-80 182-104 182-5 0-16-7-24-16zm14-109c24-29-3-36-35-10l-30 24 26 1c15 0 32-7 39-15zm13-73c4 9 6 9 6 1 1-6-3-14-9-18-10-6-50 15-50 28 0 4 11 0 24-8 19-13 25-13 29-3z"/><path d="m2372 3442c-7-5-10-15-7-24 7-17-20-44-29-29-4 5-2 12 4 16 5 3 10 11 10 17 0 7-13-1-30-17s-30-39-30-53c0-17-4-23-15-18-8 3-16 0-17-7 0-7-2-17-2-23-1-6-6-18-12-25-30-37-35-205-9-301 18-70 75-208 85-208 4 0 10-10 14-23 6-26 122-157 137-157 6 0 7 5 3 11-4 7-1 10 6 7 8-2 18-13 24-24 13-23 28-34 37-28 4 2 10 0 14-6 9-14 138-13 170 2 18 8 24 17 19 27-3 9-11 28-16 44-6 17-17 27-29 27-46 0-65 37-219 438-17 45-35 80-40 77s-7-12-4-20c7-18-28-36-47-24-12 7-12 9 1 9s13 1 0 10c-13 8-13 11-1 22 10 10 12 10 7 1-4-8-1-13 8-13s16-5 16-12c0-6 3-8 6-5 4 4-1 18-10 33-10 14-15 29-11 32 3 4 10 0 14-7 5-7 11-9 14-4 9 14-19 87-34 92-28 9-27 26 6 59 33 34 33 34 17 73-15 39-26 46-50 31zm-97-192c-3-5-14-10-23-10-15 0-15 2-2 10 20 13 33 13 25 0zm61-36c-4-12-2-15 9-10 9 3 15 0 15-9 0-22-28-18-40 4-14 26-13 31 6 31 11 0 14-5 10-16zm-55-21c13-16 12-17-3-4-10 7-18 15-18 17 0 8 8 3 21-13zm-36-32c-3-5-1-12 5-16 5-3 10-2 10 3 0 6 8 13 18 17 13 5 14 4 5-6-8-8-9-18-3-30 15-27-29-65-45-39-3 6 3 10 14 10 31 0 34 16 6 34-26 17-33 36-14 36 5 0 8-4 4-9zm115-41c-9-6-9-9 1-13 9-3 10-6 2-6-6-1-15 4-18 9-9 14 4 32 17 24 7-4 6-9-2-14zm51-344c-14-16-51-28-51-16 0 5 12 13 28 18 36 14 36 14 23-2zm124-7c4-5-1-19-10-30-14-14-29-18-69-16-36 1-50-2-48-10 1-7-2-13-8-13-19 0-10 30 14 45 19 13 29 14 45 6 27-15 34-14 28 3-9 22 36 36 48 15zm32-93c-5-14 39-36 69-36 12 0 26-4 29-10 3-5 1-10-5-10s-9-4-5-9c3-5-4-13-15-16-17-5-19-10-9-21 10-12 5-14-32-11-52 3-93 23-86 42 3 7 1 17-5 23-8 8-3 15 16 23 23 11 26 17 21 43-6 30-5 30 10 11 8-10 14-24 12-29zm-114 27c-7-2-13-13-13-24 0-10-4-19-10-19-11 0-14 33-3 43 3 4 13 7 22 6 10 0 12-2 4-6z"/><path d="m1976 3224c-4-9-4-19-1-22 2-3 7 3 11 12s4 19 1 22c-2 3-7-3-11-12z"/><path d="m3910 3104c0-8 5-12 10-9 6 3 10 10 10 16 0 5-4 9-10 9-5 0-10-7-10-16z"/><path d="m5545 3065c-16-7-25-14-20-14 6-1 3-5-5-11-8-5-12-12-8-15 3-4 21 7 40 24 37 34 36 36-7 16z"/><path d="m5465 3030c-3-5 3-10 15-10s18 5 15 10c-3 6-10 10-15 10s-12-4-15-10z"/><path d="m3470 2971c0-5 5-13 10-16 6-3 10-2 10 4 0 5-4 13-10 16-5 3-10 2-10-4z"/><path d="m2095 2920c-3-5-1-10 4-10 6 0 11 5 11 10 0 6-2 10-4 10-3 0-8-4-11-10z"/><path d="m2838 2919c-14-8-18-24-18-75 0-72-18-126-56-165-24-25-25-29-13-68 7-22 18-41 25-41 26 0 88 66 112 120 32 70 36 172 9 213-19 29-32 32-59 16zm43-195c-11-15-21-32-21-39s-6-18-14-24c-22-18-41 11-24 38 7 12 16 21 20 21 5 0 8 7 8 15 0 18 32 37 44 25 5-5-1-20-13-36z"/><path d="m2050 2901c0-5-9-13-21-16-11-4-18-9-16-12 6-5 67 25 67 32 0 3-7 5-15 5s-15-4-15-9z"/><path d="m3480 2860c0-5 5-10 11-10 5 0 7 5 4 10-3 6-8 10-11 10-2 0-4-4-4-10z"/><path d="m2045 2850c-17-7-17-9-2-9 22-1 22-13-3-34-11-9-20-23-20-30 0-8-9-22-20-32s-20-24-20-31-7-20-16-28c-35-35-91-5-74 39 6 16 6 25-1 25-5 0-13-8-16-17-11-27-35-51-67-62-21-9-26-16-21-29 4-9 14-36 22-58 11-33 18-41 33-37 11 3 17 10 13 16s4 8 21 3c33-8 66 1 66 18 0 22 35 46 68 46 38 0 42 20 10 44l-23 17 27-6c15-3 30-1 33 5 9 14 52 12 78-4 12-7 34-16 49-20l28-6-21 52c-12 29-24 60-27 68-7 21-33 50-44 50-5 0-7-4-4-9 4-5-3-7-14-4s-20 14-20 24c0 21-5 22-35 9z"/><path d="m5210 2830c0-5 11-9 25-8s25 6 25 10-11 8-25 8-25-4-25-10z"/><path d="m1767 2713c-2-4-1-17 3-27 6-19 7-19 14-1 7 19-8 44-17 28z"/><path d="m2193 2618c-22-29-24-38-8-38 11 0 15 5 11 15-7 19 8 19 24 0 18-22 5-45-27-46-27 0-28-1-5-11 32-16 27-33-13-52-43-21-51-17-59 29-7 37-22 43-57 24-14-7-30-7-49-1-19 7-31 7-39-1s-11-8-11 1c0 7-7 12-15 12-9 0-12-6-8-17 5-12 2-15-10-10-20 7-21 3-6-25 10-19 9-20-12-15-13 4-30 7-36 7-7 0-13 6-13 14 0 16-18 31-26 23-9-9 16-47 30-47 7 0 21-9 31-20 18-20 18-21-3-27-26-6-26-3-7-51 9-21 22-39 29-39 11 0 12 4 3 19-10 16-8 22 13 38 13 10 28 16 32 13 15-9 2-116-16-128-20-15-21-29-1-21 9 3 15 0 15-9 0-8 9-15 20-15 18 0 19 3 8 20-10 16-10 22 1 32 10 9 12 9 7 1-4-7 2-17 13-22 26-14 44-14 35 1-5 8 2 9 24 5 18-4 32-2 32 3s7 7 15 4c8-4 22-1 30 6 11 9 22 9 46 1 17-6 36-8 41-5 6 4 4-4-3-17-11-21-11-23 3-11 13 10 17 10 22-5 6-14 9-15 16-4 4 8 6 20 3 28-3 7 0 13 7 13s10-8 7-20c-3-11 0-20 6-20 7 0 6-4-2-9-12-8-12-13 3-35 9-15 14-31 11-37-4-6 3-8 19-5 15 3 24 1 21-5-4-5-1-9 4-9 6 0 11 4 11 9s6 11 14 14c9 4 13 0 12-11-2-9 4-22 12-28 13-9 11-12-12-16-20-4-26-2-22 8 6 15-12 18-38 8-19-7-21-30-3-37 6-2 9-7 6-11-10-10-59 15-52 27 3 5 0 8-7 5-7-2-25 7-39 20-14 14-38 29-53 34-16 6-28 14-28 20 0 5 4 7 9 3 17-10 23 15 7 31-15 14-16 14-16-4 0-22-25-47-39-38-5 3-11-1-15-9-3-8-13-15-22-15-11 0-14-5-10-16 3-9 6-20 6-25 0-4 8-6 18-2 14 5 15 3 5-7-10-11-15-11-27 0-9 7-13 16-10 21s-2 9-10 9c-9 0-16-5-16-11 0-5-4-7-10-4-5 3-10 18-10 32 0 15 3 23 6 20 4-3 16-2 28 4 20 9 20 9 3-4-10-9-14-18-9-21 13-8 25 23 23 57-2 15 2 27 8 27s11 5 11 10c0 6-7 10-15 10s-15-8-15-19c0-15-6-18-33-15-45 5-64-23-43-69 8-18 20-49 26-69 9-30 17-38 35-38 12 0 33-11 46-24 19-20 27-22 38-13 12 10 13 8 9-11l-6-23 33 21c40 25 45 25 45 0 0-16-7-20-30-20-17 0-29-3-28-7 5-24-15-59-34-60-27-2-39-15-30-31 10-15 62 6 62 26 0 14 10 15 30 2 13-8 12-10-2-10-10 0-18-4-18-9s-9-13-20-16c-11-4-18-11-15-16s-1-6-9-3c-9 3-16 4-16 1 0-14 75-196 92-225 18-30 82-72 108-72 19 0 96 38 110 55 7 8 18 15 26 15 7 0 18 9 24 20 8 15 21 20 51 20 48 0 63-23 30-46-34-24-24-34 17-17 51 22 558 218 661 256 46 17 79 33 73 35-19 6-14 25 13 51 14 13 25 32 25 43 0 13 5 18 14 15 11-4 13-1 9 10-5 11-3 14 6 9 15-10 45 29 47 59 1 11 5 36 9 56 8 44-12 64-64 62-20-1-166-52-326-113-159-61-311-114-336-117-28-3-67 1-101 11-31 9-67 16-81 16s-28 4-31 9c-7 11-76 20-76 9 0-4 5-8 12-8 6 0 9-2 6-5-8-9-38 6-32 16 8 13-30 11-43-2-14-14-43-5-43 13 0 9 3 9 12 0 8-8 19-5 42 15 17 14 43 31 57 37 23 10 25 14 16 36-6 14-20 52-32 85-53 143-65 166-94 191-30 25-41 54-21 54 12 0 14 33 3 44-5 4-8 11-8 14-3 29-44 122-55 122-4 0-12-6-17-12zm52-88c3-5-1-10-10-10s-13 5-10 10c3 6 8 10 10 10s7-4 10-10zm-265-30c0-5-2-10-4-10-3 0-8 5-11 10-3 6-1 10 4 10 6 0 11-4 11-10zm130-60c8-5 11-10 5-10-5 0-17 5-25 10s-10 10-5 10c6 0 17-5 25-10zm-36-36c4-9 4-19 1-22s-5 0-5 7-5 9-10 6c-8-5-8-11-1-19 6-7 8-16 4-19-8-9-34 43-27 54 9 15 31 10 38-7zm73-9c-7-15-20-24-32-24-17 1-17 2-2 6 9 2 17 11 17 18s6 16 13 18c6 3 13 6 14 6 0 1-4-10-10-24zm124-7c18-16 19-19 6-15-10 4-23 7-28 7s-9 7-9 15c0 20 2 19 31-7zm-261-8c-8-5-17-7-19-4-3 3 1 9 9 14s17 7 19 4c3-3-1-9-9-14zm201-13c-10-9-11-8-5 6 3 10 9 15 12 12s0-11-7-18zm36-13c-3-3-12-4-19-1-8 3-5 6 6 6 11 1 17-2 13-5zm-217-19c0-8-4-15-10-15-5 0-7 7-4 15 4 8 8 15 10 15s4-7 4-15zm253-19c4-10 1-13-8-9-8 3-12 9-9 14 7 12 11 11 17-5zm47-15c0-5-8-15-17-22-16-12-17-12-6 2 7 9 10 19 6 22-3 4-1 7 5 7 7 0 12-4 12-9zm-160-161c-12-22-21-26-17-7 2 10 17 26 25 27 1 0-2-9-8-20zm37-21c-9-6-15-14-12-20 3-5-1-6-11-2-14 5-13 8 7 24 13 10 26 15 29 13 3-3-3-10-13-15zm-94-34c4-8 2-17-3-20-6-4-10 3-10 14 0 25 6 27 13 6zm-33-15c12-8 11-10-5-9-11 1-31 5-45 9-24 8-24 8 5 9 17 0 37-4 45-9zm170-1c0-4-7-9-15-13-9-3-15 0-15 8 0 7 7 13 15 13s15-4 15-8zm-95-9c-3-5-12-10-18-10-7 0-6 4 3 10 19 12 23 12 15 0zm160 0c13-6 15-9 5-9-8 0-22 4-30 9-18 12-2 12 25 0zm982-40c-1-23-22-27-30-6-6 16 1 26 19 26 7 0 12-9 11-20zm-917-34c0-3-4-8-10-11-5-3-10-1-10 4 0 6 5 11 10 11 6 0 10-2 10-4zm-140-182c0-18-34-18-49-1-15 18-6 25 24 19 14-2 25-11 25-18zm303 2c17-26 13-36-15-36-16 0-23 11-19 33 0 4-2 6-6 6-19-3-33 2-33 11 0 21 58 10 73-14zm-373 4c0-5-2-10-4-10-3 0-8 5-11 10-3 6-1 10 4 10 6 0 11-4 11-10zm826-3c8-7-57-37-81-37-9 0-15 9-15 21 0 17 3 19 13 10 10-8 19-7 32 3 19 14 39 15 51 3z"/><path d="m5033 2595c-3-9-3-18-1-21 9-9 38 8 38 22 0 19-29 18-37-1z"/><path d="m1925 2300c-3-5-1-10 4-10 6 0 11 5 11 10 0 6-2 10-4 10-3 0-8-4-11-10z"/><path d="m3750 2085c-14-16-3-20 19-6 8 5 9 11 3 15-5 3-15-1-22-9z"/><path d="m2400 2069c0-5 5-7 10-4 6 3 10 8 10 11 0 2-4 4-10 4-5 0-10-5-10-11z"/><path d="m2430 1580c0-5 5-10 10-10 6 0 10 5 10 10 0 6-4 10-10 10-5 0-10-4-10-10z"/></g></svg>